<mxfile host="Electron" agent="Mozilla/5.0 (Windows NT 10.0; Win64; x64) AppleWebKit/537.36 (KHTML, like Gecko) draw.io/26.1.1 Chrome/132.0.6834.210 Electron/34.3.3 Safari/537.36" version="26.1.1" pages="5">
  <diagram name="Page-1" id="SigXpB9CkeuJQZpBByPk">
    <mxGraphModel dx="979" dy="626" grid="1" gridSize="10" guides="1" tooltips="1" connect="1" arrows="1" fold="1" page="1" pageScale="1" pageWidth="850" pageHeight="1100" math="0" shadow="0">
      <root>
        <mxCell id="0" />
        <mxCell id="1" parent="0" />
        <mxCell id="o6b-7TuuPEHLtJqzvapH-3" value="" style="rounded=0;whiteSpace=wrap;html=1;direction=south;container=0;" parent="1" vertex="1">
          <mxGeometry x="26.23170278637771" y="318.5454545454545" width="62.30650154798762" height="149.09090909090907" as="geometry" />
        </mxCell>
        <mxCell id="o6b-7TuuPEHLtJqzvapH-4" value="" style="triangle;whiteSpace=wrap;html=1;container=0;" parent="1" vertex="1">
          <mxGeometry x="26.23170278637771" y="437.8181818181818" width="12.461300309597524" height="29.818181818181817" as="geometry" />
        </mxCell>
        <mxCell id="o6b-7TuuPEHLtJqzvapH-5" value="" style="rounded=0;whiteSpace=wrap;html=1;direction=south;container=0;" parent="1" vertex="1">
          <mxGeometry x="26.23170278637771" y="545.9109090909091" width="62.30650154798762" height="149.09090909090907" as="geometry" />
        </mxCell>
        <mxCell id="o6b-7TuuPEHLtJqzvapH-6" value="" style="triangle;whiteSpace=wrap;html=1;container=0;" parent="1" vertex="1">
          <mxGeometry x="26.23170278637771" y="665.1836363636363" width="12.461300309597524" height="29.818181818181817" as="geometry" />
        </mxCell>
        <mxCell id="o6b-7TuuPEHLtJqzvapH-7" value="Tx_FIFO" style="rounded=0;whiteSpace=wrap;html=1;direction=south;container=0;" parent="1" vertex="1">
          <mxGeometry x="291.687306501548" y="94.9090909090909" width="62.30650154798762" height="149.09090909090907" as="geometry" />
        </mxCell>
        <mxCell id="o6b-7TuuPEHLtJqzvapH-9" value="" style="endArrow=classic;html=1;rounded=0;strokeWidth=1;startSize=6;opacity=70;jumpSize=1;strokeColor=default;shadow=1;exitX=0.445;exitY=0;exitDx=0;exitDy=0;exitPerimeter=0;" parent="1" source="o6b-7TuuPEHLtJqzvapH-1" edge="1">
          <mxGeometry width="50" height="50" relative="1" as="geometry">
            <mxPoint x="204.45820433436535" y="161.63727272727272" as="sourcePoint" />
            <mxPoint x="290" y="156" as="targetPoint" />
          </mxGeometry>
        </mxCell>
        <mxCell id="o6b-7TuuPEHLtJqzvapH-13" value="UART_CTL" style="text;html=1;align=center;verticalAlign=middle;whiteSpace=wrap;rounded=0;container=0;" parent="1" vertex="1">
          <mxGeometry x="20.001052631578958" y="467.6409090909091" width="74.76780185758514" height="44.72727272727273" as="geometry" />
        </mxCell>
        <mxCell id="o6b-7TuuPEHLtJqzvapH-14" value="baud_rate" style="text;html=1;align=center;verticalAlign=middle;whiteSpace=wrap;rounded=0;container=0;" parent="1" vertex="1">
          <mxGeometry x="20.00040247678021" y="698.730909090909" width="74.76780185758514" height="44.72727272727273" as="geometry" />
        </mxCell>
        <mxCell id="o6b-7TuuPEHLtJqzvapH-15" value="" style="endArrow=classic;html=1;rounded=0;strokeWidth=1;startSize=6;opacity=70;jumpSize=6;strokeColor=default;shadow=1;exitX=0.112;exitY=-0.03;exitDx=0;exitDy=0;exitPerimeter=0;entryX=0.159;entryY=0.009;entryDx=0;entryDy=0;entryPerimeter=0;jumpStyle=arc;" parent="1" source="o6b-7TuuPEHLtJqzvapH-3" target="o6b-7TuuPEHLtJqzvapH-36" edge="1">
          <mxGeometry width="50" height="50" relative="1" as="geometry">
            <mxPoint x="205.7043343653251" y="348.3636363636363" as="sourcePoint" />
            <mxPoint x="248.0727554179567" y="791.1636363636363" as="targetPoint" />
            <Array as="points">
              <mxPoint x="300" y="335" />
            </Array>
          </mxGeometry>
        </mxCell>
        <mxCell id="o6b-7TuuPEHLtJqzvapH-16" value="parity_enable" style="text;html=1;align=center;verticalAlign=middle;whiteSpace=wrap;rounded=0;container=0;" parent="1" vertex="1">
          <mxGeometry x="98.53950464396286" y="303.6363636363636" width="74.76780185758514" height="44.72727272727273" as="geometry" />
        </mxCell>
        <mxCell id="o6b-7TuuPEHLtJqzvapH-17" value="" style="endArrow=classic;html=1;rounded=0;strokeWidth=1;startSize=6;opacity=70;jumpSize=6;strokeColor=default;shadow=1;exitX=0.103;exitY=-0.056;exitDx=0;exitDy=0;exitPerimeter=0;jumpStyle=arc;" parent="1" source="o6b-7TuuPEHLtJqzvapH-7" edge="1">
          <mxGeometry width="50" height="50" relative="1" as="geometry">
            <mxPoint x="403.8390092879257" y="109.81818181818181" as="sourcePoint" />
            <mxPoint x="1163" y="120" as="targetPoint" />
          </mxGeometry>
        </mxCell>
        <mxCell id="o6b-7TuuPEHLtJqzvapH-19" value="" style="endArrow=classic;html=1;rounded=0;strokeWidth=1;startSize=6;opacity=70;jumpSize=1;strokeColor=default;shadow=1;entryX=0.25;entryY=1;entryDx=0;entryDy=0;exitX=0.25;exitY=0;exitDx=0;exitDy=0;" parent="1" source="AXFnRNEYjVkzy-_qRL-M-2" target="o6b-7TuuPEHLtJqzvapH-10" edge="1">
          <mxGeometry width="50" height="50" relative="1" as="geometry">
            <mxPoint x="578.297213622291" y="258.9090909090909" as="sourcePoint" />
            <mxPoint x="1162.732198142415" y="169.45454545454544" as="targetPoint" />
            <Array as="points">
              <mxPoint x="590" y="180" />
              <mxPoint x="590" y="140" />
            </Array>
          </mxGeometry>
        </mxCell>
        <mxCell id="o6b-7TuuPEHLtJqzvapH-20" value="" style="endArrow=classic;html=1;rounded=0;strokeWidth=1;startSize=6;opacity=70;jumpSize=6;strokeColor=default;shadow=1;entryX=0.75;entryY=1;entryDx=0;entryDy=0;exitX=0.571;exitY=-0.03;exitDx=0;exitDy=0;exitPerimeter=0;jumpStyle=arc;" parent="1" source="o6b-7TuuPEHLtJqzvapH-3" target="AXFnRNEYjVkzy-_qRL-M-2" edge="1">
          <mxGeometry width="50" height="50" relative="1" as="geometry">
            <mxPoint x="204.45820433436535" y="378.18181818181813" as="sourcePoint" />
            <mxPoint x="570.8916408668733" y="319.39740259740245" as="targetPoint" />
            <Array as="points">
              <mxPoint x="420" y="404" />
              <mxPoint x="420" y="240" />
            </Array>
          </mxGeometry>
        </mxCell>
        <mxCell id="o6b-7TuuPEHLtJqzvapH-35" value="" style="endArrow=classic;html=1;rounded=0;strokeWidth=1;startSize=6;opacity=70;jumpSize=1;strokeColor=default;shadow=1;entryX=0.42;entryY=-0.051;entryDx=0;entryDy=0;entryPerimeter=0;exitX=0.25;exitY=0;exitDx=0;exitDy=0;" parent="1" source="o6b-7TuuPEHLtJqzvapH-22" edge="1">
          <mxGeometry width="50" height="50" relative="1" as="geometry">
            <mxPoint x="559.6052631578948" y="516.0909090909092" as="sourcePoint" />
            <mxPoint x="591.0077399380806" y="791.0741818181818" as="targetPoint" />
            <Array as="points">
              <mxPoint x="591" y="520" />
            </Array>
          </mxGeometry>
        </mxCell>
        <UserObject label="controller" link="data:page/id,4x6lFXo7BKxBeUy2kg6I" id="o6b-7TuuPEHLtJqzvapH-36">
          <mxCell style="rounded=0;whiteSpace=wrap;html=1;container=0;" parent="1" vertex="1">
            <mxGeometry x="142.1517027863777" y="795.6363636363636" width="1009.3653250773995" height="89.45454545454545" as="geometry" />
          </mxCell>
        </UserObject>
        <mxCell id="o6b-7TuuPEHLtJqzvapH-55" value="" style="endArrow=classic;html=1;rounded=0;strokeWidth=1;startSize=6;opacity=70;jumpSize=1;strokeColor=default;shadow=1;entryX=0.741;entryY=-0.036;entryDx=0;entryDy=0;entryPerimeter=0;exitX=0.25;exitY=0;exitDx=0;exitDy=0;" parent="1" source="o6b-7TuuPEHLtJqzvapH-39" target="o6b-7TuuPEHLtJqzvapH-36" edge="1">
          <mxGeometry width="50" height="50" relative="1" as="geometry">
            <mxPoint x="864.907120743034" y="564.5454545454545" as="sourcePoint" />
            <mxPoint x="902.2910216718268" y="564.5454545454545" as="targetPoint" />
            <Array as="points">
              <mxPoint x="889.8297213622292" y="564.5454545454545" />
            </Array>
          </mxGeometry>
        </mxCell>
        <mxCell id="o6b-7TuuPEHLtJqzvapH-56" value="" style="endArrow=classic;html=1;rounded=0;strokeWidth=1;startSize=6;opacity=70;jumpSize=1;strokeColor=default;shadow=1;entryX=0.775;entryY=1;entryDx=0;entryDy=0;entryPerimeter=0;" parent="1" target="o6b-7TuuPEHLtJqzvapH-10" edge="1">
          <mxGeometry width="50" height="50" relative="1" as="geometry">
            <mxPoint x="690.4489164086688" y="794.1454545454545" as="sourcePoint" />
            <mxPoint x="565.8359133126935" y="467.63636363636357" as="targetPoint" />
            <Array as="points">
              <mxPoint x="680" y="230" />
            </Array>
          </mxGeometry>
        </mxCell>
        <mxCell id="o6b-7TuuPEHLtJqzvapH-57" value="" style="endArrow=classic;html=1;rounded=0;strokeWidth=1;startSize=6;opacity=70;jumpSize=1;strokeColor=default;shadow=1;entryX=0.67;entryY=1.08;entryDx=0;entryDy=0;entryPerimeter=0;" parent="1" target="o6b-7TuuPEHLtJqzvapH-10" edge="1">
          <mxGeometry width="50" height="50" relative="1" as="geometry">
            <mxPoint x="665.5263157894738" y="795.6363636363636" as="sourcePoint" />
            <mxPoint x="1023.1656346749227" y="285.74545454545455" as="targetPoint" />
            <Array as="points">
              <mxPoint x="660" y="212" />
            </Array>
          </mxGeometry>
        </mxCell>
        <mxCell id="o6b-7TuuPEHLtJqzvapH-59" value="" style="endArrow=classic;html=1;rounded=0;strokeWidth=1;startSize=6;opacity=70;jumpSize=1;strokeColor=default;shadow=1;exitX=0.125;exitY=0;exitDx=0;exitDy=0;exitPerimeter=0;" parent="1" source="o6b-7TuuPEHLtJqzvapH-10" edge="1">
          <mxGeometry width="50" height="50" relative="1" as="geometry">
            <mxPoint x="1089.2105263157896" y="124.72727272727272" as="sourcePoint" />
            <mxPoint x="1640" y="120" as="targetPoint" />
          </mxGeometry>
        </mxCell>
        <mxCell id="o6b-7TuuPEHLtJqzvapH-63" value="tx_baud_rate_reg_en" style="text;html=1;align=center;verticalAlign=middle;whiteSpace=wrap;rounded=0;rotation=90;container=0;" parent="1" vertex="1">
          <mxGeometry x="372.6838080495356" y="720.0018181818182" width="112.15170278637771" height="44.72727272727273" as="geometry" />
        </mxCell>
        <mxCell id="o6b-7TuuPEHLtJqzvapH-64" value="baud_rate" style="text;html=1;align=center;verticalAlign=middle;whiteSpace=wrap;rounded=0;container=0;" parent="1" vertex="1">
          <mxGeometry x="94.76950464396286" y="553.360909090909" width="62.30650154798762" height="14.909090909090908" as="geometry" />
        </mxCell>
        <mxCell id="o6b-7TuuPEHLtJqzvapH-65" value="tx_baud_rate" style="text;html=1;align=center;verticalAlign=middle;whiteSpace=wrap;rounded=0;rotation=90;container=0;" parent="1" vertex="1">
          <mxGeometry x="528.452012383901" y="721.090909090909" width="99.69040247678019" height="44.72727272727273" as="geometry" />
        </mxCell>
        <mxCell id="o6b-7TuuPEHLtJqzvapH-67" value="tx_fifo_empty" style="text;html=1;align=center;verticalAlign=middle;whiteSpace=wrap;rounded=0;rotation=90;container=0;" parent="1" vertex="1">
          <mxGeometry x="347.759907120743" y="698.7372727272727" width="99.69040247678019" height="44.72727272727273" as="geometry" />
        </mxCell>
        <mxCell id="o6b-7TuuPEHLtJqzvapH-68" value="tx_shift_en" style="text;html=1;align=center;verticalAlign=middle;whiteSpace=wrap;rounded=0;rotation=90;container=0;" parent="1" vertex="1">
          <mxGeometry x="628.1424148606811" y="721.090909090909" width="99.69040247678019" height="44.72727272727273" as="geometry" />
        </mxCell>
        <mxCell id="o6b-7TuuPEHLtJqzvapH-69" value="" style="endArrow=classic;html=1;rounded=0;strokeWidth=1;startSize=6;opacity=70;jumpSize=6;strokeColor=default;shadow=1;entryX=0.589;entryY=0.992;entryDx=0;entryDy=0;entryPerimeter=0;exitX=0.181;exitY=0.019;exitDx=0;exitDy=0;exitPerimeter=0;jumpStyle=arc;" parent="1" source="o6b-7TuuPEHLtJqzvapH-5" target="o6b-7TuuPEHLtJqzvapH-22" edge="1">
          <mxGeometry width="50" height="50" relative="1" as="geometry">
            <mxPoint x="206.95046439628484" y="572" as="sourcePoint" />
            <mxPoint x="341.53250773993807" y="572" as="targetPoint" />
          </mxGeometry>
        </mxCell>
        <mxCell id="o6b-7TuuPEHLtJqzvapH-70" value="tx_shift_reg_en" style="text;html=1;align=center;verticalAlign=middle;whiteSpace=wrap;rounded=0;rotation=90;container=0;" parent="1" vertex="1">
          <mxGeometry x="653.0650154798761" y="721.090909090909" width="99.69040247678019" height="44.72727272727273" as="geometry" />
        </mxCell>
        <mxCell id="o6b-7TuuPEHLtJqzvapH-71" value="tx_bit_count_reg_en" style="text;html=1;align=center;verticalAlign=middle;whiteSpace=wrap;rounded=0;rotation=90;container=0;" parent="1" vertex="1">
          <mxGeometry x="684.21826625387" y="709.9972727272727" width="87.22910216718267" height="44.72727272727273" as="geometry" />
        </mxCell>
        <mxCell id="o6b-7TuuPEHLtJqzvapH-72" value="rx_bit_count" style="text;html=1;align=center;verticalAlign=middle;whiteSpace=wrap;rounded=0;rotation=90;container=0;" parent="1" vertex="1">
          <mxGeometry x="849.9958204334366" y="725.0918181818181" width="99.69040247678019" height="44.72727272727273" as="geometry" />
        </mxCell>
        <mxCell id="o6b-7TuuPEHLtJqzvapH-74" value="" style="endArrow=classic;html=1;rounded=0;strokeWidth=1;startSize=6;opacity=70;jumpSize=1;strokeColor=default;shadow=1;" parent="1" edge="1">
          <mxGeometry width="50" height="50" relative="1" as="geometry">
            <mxPoint x="42.461300309597526" y="818" as="sourcePoint" />
            <mxPoint x="142.1517027863777" y="818" as="targetPoint" />
          </mxGeometry>
        </mxCell>
        <mxCell id="o6b-7TuuPEHLtJqzvapH-75" value="clock" style="text;html=1;align=center;verticalAlign=middle;whiteSpace=wrap;rounded=0;container=0;" parent="1" vertex="1">
          <mxGeometry x="30" y="773.2727272727273" width="74.76780185758514" height="44.72727272727273" as="geometry" />
        </mxCell>
        <mxCell id="o6b-7TuuPEHLtJqzvapH-76" value="" style="endArrow=classic;html=1;rounded=0;strokeWidth=1;startSize=6;opacity=70;jumpSize=1;strokeColor=default;shadow=1;" parent="1" edge="1">
          <mxGeometry width="50" height="50" relative="1" as="geometry">
            <mxPoint x="42.461300309597526" y="862.7272727272727" as="sourcePoint" />
            <mxPoint x="142.1517027863777" y="862.7272727272727" as="targetPoint" />
          </mxGeometry>
        </mxCell>
        <mxCell id="o6b-7TuuPEHLtJqzvapH-77" value="reset" style="text;html=1;align=center;verticalAlign=middle;whiteSpace=wrap;rounded=0;container=0;" parent="1" vertex="1">
          <mxGeometry x="30" y="818" width="74.76780185758514" height="44.72727272727273" as="geometry" />
        </mxCell>
        <mxCell id="o6b-7TuuPEHLtJqzvapH-78" value="tx_parity_add" style="text;html=1;align=center;verticalAlign=middle;whiteSpace=wrap;rounded=0;container=0;" parent="1" vertex="1">
          <mxGeometry x="1076.75" y="117.28" width="74.77" height="24.72" as="geometry" />
        </mxCell>
        <mxCell id="o6b-7TuuPEHLtJqzvapH-79" value="" style="endArrow=none;html=1;rounded=0;" parent="1" edge="1">
          <mxGeometry width="50" height="50" relative="1" as="geometry">
            <mxPoint x="460" y="125" as="sourcePoint" />
            <mxPoint x="500" y="90" as="targetPoint" />
          </mxGeometry>
        </mxCell>
        <mxCell id="o6b-7TuuPEHLtJqzvapH-80" value="8" style="text;html=1;align=center;verticalAlign=middle;whiteSpace=wrap;rounded=0;container=0;" parent="1" vertex="1">
          <mxGeometry x="472.3764086687307" y="80" width="12.461300309597524" height="14.909090909090908" as="geometry" />
        </mxCell>
        <mxCell id="o6b-7TuuPEHLtJqzvapH-81" value="tx_data" style="text;html=1;align=center;verticalAlign=middle;whiteSpace=wrap;rounded=0;container=0;" parent="1" vertex="1">
          <mxGeometry x="528.452012383901" y="80" width="74.76780185758514" height="44.72727272727273" as="geometry" />
        </mxCell>
        <mxCell id="o6b-7TuuPEHLtJqzvapH-82" value="tx_fifo_data" style="text;html=1;align=center;verticalAlign=middle;whiteSpace=wrap;rounded=0;container=0;" parent="1" vertex="1">
          <mxGeometry x="214.42820433436535" y="129.9990909090909" width="37.38390092879257" height="29.818181818181817" as="geometry" />
        </mxCell>
        <mxCell id="o6b-7TuuPEHLtJqzvapH-83" value="" style="endArrow=none;html=1;rounded=0;" parent="1" edge="1">
          <mxGeometry width="50" height="50" relative="1" as="geometry">
            <mxPoint x="254.3021052631579" y="171.81636363636363" as="sourcePoint" />
            <mxPoint x="279.2247058823529" y="141.99818181818182" as="targetPoint" />
          </mxGeometry>
        </mxCell>
        <mxCell id="o6b-7TuuPEHLtJqzvapH-84" value="8" style="text;html=1;align=center;verticalAlign=middle;whiteSpace=wrap;rounded=0;container=0;" parent="1" vertex="1">
          <mxGeometry x="260.03" y="124.72999999999999" width="19.2" height="32.54" as="geometry" />
        </mxCell>
        <mxCell id="o6b-7TuuPEHLtJqzvapH-85" value="tx_bits" style="text;html=1;align=center;verticalAlign=middle;whiteSpace=wrap;rounded=0;container=0;" parent="1" vertex="1">
          <mxGeometry x="1288.59133126935" y="102.36818181818181" width="74.76780185758514" height="14.909090909090908" as="geometry" />
        </mxCell>
        <mxCell id="o6b-7TuuPEHLtJqzvapH-87" value="parity" style="text;html=1;align=center;verticalAlign=middle;whiteSpace=wrap;rounded=0;container=0;" parent="1" vertex="1">
          <mxGeometry x="98.53594427244585" y="385.6363636363636" width="49.845201238390096" height="14.909090909090908" as="geometry" />
        </mxCell>
        <mxCell id="o6b-7TuuPEHLtJqzvapH-88" value="" style="endArrow=classic;html=1;rounded=0;strokeWidth=1;startSize=6;opacity=70;jumpSize=1;strokeColor=default;shadow=1;exitX=0.274;exitY=0.012;exitDx=0;exitDy=0;exitPerimeter=0;entryX=0.233;entryY=-0.198;entryDx=0;entryDy=0;entryPerimeter=0;" parent="1" source="o6b-7TuuPEHLtJqzvapH-36" target="o6b-7TuuPEHLtJqzvapH-23" edge="1">
          <mxGeometry width="50" height="50" relative="1" as="geometry">
            <mxPoint x="410.0696594427245" y="592.8727272727273" as="sourcePoint" />
            <mxPoint x="447.453560371517" y="592.8727272727273" as="targetPoint" />
            <Array as="points">
              <mxPoint x="416.3003095975232" y="595.8545454545454" />
            </Array>
          </mxGeometry>
        </mxCell>
        <mxCell id="o6b-7TuuPEHLtJqzvapH-89" value="" style="endArrow=classic;html=1;rounded=0;strokeWidth=1;startSize=6;opacity=70;jumpSize=6;strokeColor=default;shadow=1;exitX=0.317;exitY=0.038;exitDx=0;exitDy=0;exitPerimeter=0;jumpStyle=arc;" parent="1" source="o6b-7TuuPEHLtJqzvapH-3" edge="1">
          <mxGeometry width="50" height="50" relative="1" as="geometry">
            <mxPoint x="204.45820433436535" y="363.27272727272725" as="sourcePoint" />
            <mxPoint x="329.07120743034056" y="794.1454545454545" as="targetPoint" />
            <Array as="points">
              <mxPoint x="329.07120743034056" y="363.27272727272725" />
            </Array>
          </mxGeometry>
        </mxCell>
        <mxCell id="o6b-7TuuPEHLtJqzvapH-90" value="stop_bit" style="text;html=1;align=center;verticalAlign=middle;whiteSpace=wrap;rounded=0;container=0;" parent="1" vertex="1">
          <mxGeometry x="98.54" y="333.45" width="41.46" height="36.55" as="geometry" />
        </mxCell>
        <mxCell id="o6b-7TuuPEHLtJqzvapH-103" value="" style="endArrow=classic;html=1;rounded=0;strokeWidth=1;startSize=6;opacity=70;jumpSize=6;strokeColor=default;shadow=1;entryX=0.565;entryY=1.04;entryDx=0;entryDy=0;entryPerimeter=0;curved=0;jumpStyle=arc;endFill=1;startArrow=oval;startFill=1;" parent="1" target="o6b-7TuuPEHLtJqzvapH-10" edge="1">
          <mxGeometry width="50" height="50" relative="1" as="geometry">
            <mxPoint x="300" y="350" as="sourcePoint" />
            <mxPoint x="727.8328173374614" y="232.07272727272726" as="targetPoint" />
            <Array as="points">
              <mxPoint x="640" y="350" />
              <mxPoint x="640" y="190" />
            </Array>
          </mxGeometry>
        </mxCell>
        <mxCell id="o6b-7TuuPEHLtJqzvapH-108" value="tx_en" style="text;html=1;align=center;verticalAlign=middle;whiteSpace=wrap;rounded=0;container=0;rotation=90;" parent="1" vertex="1">
          <mxGeometry x="220" y="743.4627272727271" width="74.76780185758514" height="44.72727272727273" as="geometry" />
        </mxCell>
        <mxCell id="o6b-7TuuPEHLtJqzvapH-22" value="baud_rate&lt;br&gt;reg" style="rounded=0;whiteSpace=wrap;html=1;direction=south;container=0;" parent="1" vertex="1">
          <mxGeometry x="447.453560371517" y="482.5454545454545" width="62.30650154798762" height="149.0909090909091" as="geometry" />
        </mxCell>
        <mxCell id="o6b-7TuuPEHLtJqzvapH-23" value="" style="triangle;whiteSpace=wrap;html=1;container=0;" parent="1" vertex="1">
          <mxGeometry x="447.453560371517" y="601.8181818181818" width="12.461300309597524" height="29.81818181818182" as="geometry" />
        </mxCell>
        <mxCell id="o6b-7TuuPEHLtJqzvapH-32" value="1" style="text;html=1;align=center;verticalAlign=middle;whiteSpace=wrap;rounded=0;container=0;" parent="1" vertex="1">
          <mxGeometry x="397.60835913312695" y="564.5454545454545" width="24.922600619195048" height="14.90909090909091" as="geometry" />
        </mxCell>
        <mxCell id="o6b-7TuuPEHLtJqzvapH-39" value="bit_count" style="rounded=0;whiteSpace=wrap;html=1;direction=south;container=0;" parent="1" vertex="1">
          <mxGeometry x="787.9954179566565" y="527.2727272727273" width="62.30650154798762" height="149.0909090909091" as="geometry" />
        </mxCell>
        <mxCell id="o6b-7TuuPEHLtJqzvapH-40" value="" style="triangle;whiteSpace=wrap;html=1;container=0;" parent="1" vertex="1">
          <mxGeometry x="787.9954179566565" y="646.5454545454545" width="12.461300309597524" height="29.81818181818182" as="geometry" />
        </mxCell>
        <mxCell id="o6b-7TuuPEHLtJqzvapH-51" value="" style="endArrow=classic;html=1;rounded=0;strokeWidth=1;startSize=6;opacity=70;jumpSize=1;strokeColor=default;shadow=1;exitX=0.57;exitY=-0.004;exitDx=0;exitDy=0;exitPerimeter=0;entryX=0.697;entryY=1.008;entryDx=0;entryDy=0;entryPerimeter=0;" parent="1" source="o6b-7TuuPEHLtJqzvapH-36" target="o6b-7TuuPEHLtJqzvapH-39" edge="1">
          <mxGeometry width="50" height="50" relative="1" as="geometry">
            <mxPoint x="721.6021671826627" y="631.6363636363636" as="sourcePoint" />
            <mxPoint x="752.7554179566565" y="631.6363636363636" as="targetPoint" />
            <Array as="points">
              <mxPoint x="715.3715170278639" y="631.6363636363636" />
            </Array>
          </mxGeometry>
        </mxCell>
        <mxCell id="o6b-7TuuPEHLtJqzvapH-110" value="" style="group" parent="1" vertex="1" connectable="0">
          <mxGeometry x="1163.98" y="94.91" width="62.31" height="175.09" as="geometry" />
        </mxCell>
        <mxCell id="o6b-7TuuPEHLtJqzvapH-10" value="Transmiter&lt;br&gt;shift_reg" style="rounded=0;whiteSpace=wrap;html=1;direction=south;container=0;" parent="o6b-7TuuPEHLtJqzvapH-110" vertex="1">
          <mxGeometry width="62.30999999999998" height="175.09000000000003" as="geometry" />
        </mxCell>
        <mxCell id="o6b-7TuuPEHLtJqzvapH-11" value="" style="triangle;whiteSpace=wrap;html=1;container=0;" parent="o6b-7TuuPEHLtJqzvapH-110" vertex="1">
          <mxGeometry y="157.58100000000007" width="12.461999999999996" height="17.509" as="geometry" />
        </mxCell>
        <mxCell id="o6b-7TuuPEHLtJqzvapH-111" value="" style="group" parent="1" vertex="1" connectable="0">
          <mxGeometry x="1160" y="320" width="62.31" height="200" as="geometry" />
        </mxCell>
        <mxCell id="o6b-7TuuPEHLtJqzvapH-112" value="uart_status&lt;br&gt;register" style="rounded=0;whiteSpace=wrap;html=1;direction=south;container=0;" parent="o6b-7TuuPEHLtJqzvapH-111" vertex="1">
          <mxGeometry width="62.30999999999998" height="200.00000000000003" as="geometry" />
        </mxCell>
        <mxCell id="o6b-7TuuPEHLtJqzvapH-113" value="" style="triangle;whiteSpace=wrap;html=1;container=0;" parent="o6b-7TuuPEHLtJqzvapH-111" vertex="1">
          <mxGeometry y="180.00000000000009" width="12.461999999999996" height="20" as="geometry" />
        </mxCell>
        <mxCell id="o6b-7TuuPEHLtJqzvapH-114" value="" style="group" parent="1" vertex="1" connectable="0">
          <mxGeometry x="1160" y="550" width="62.31" height="175.09" as="geometry" />
        </mxCell>
        <mxCell id="o6b-7TuuPEHLtJqzvapH-115" value="Receiver&lt;br&gt;shift_reg" style="rounded=0;whiteSpace=wrap;html=1;direction=south;container=0;" parent="o6b-7TuuPEHLtJqzvapH-114" vertex="1">
          <mxGeometry width="62.30999999999998" height="175.09000000000003" as="geometry" />
        </mxCell>
        <mxCell id="o6b-7TuuPEHLtJqzvapH-116" value="" style="triangle;whiteSpace=wrap;html=1;container=0;direction=west;" parent="o6b-7TuuPEHLtJqzvapH-114" vertex="1">
          <mxGeometry x="49.85" y="157.58100000000007" width="12.461999999999996" height="17.509" as="geometry" />
        </mxCell>
        <mxCell id="o6b-7TuuPEHLtJqzvapH-119" value="" style="endArrow=classic;html=1;rounded=0;entryX=0.25;entryY=0;entryDx=0;entryDy=0;" parent="1" target="o6b-7TuuPEHLtJqzvapH-115" edge="1">
          <mxGeometry width="50" height="50" relative="1" as="geometry">
            <mxPoint x="1534.1176470588234" y="600" as="sourcePoint" />
            <mxPoint x="950" y="400" as="targetPoint" />
          </mxGeometry>
        </mxCell>
        <mxCell id="o6b-7TuuPEHLtJqzvapH-120" value="rx_bits" style="edgeLabel;html=1;align=center;verticalAlign=middle;resizable=0;points=[];" parent="o6b-7TuuPEHLtJqzvapH-119" vertex="1" connectable="0">
          <mxGeometry x="0.1979" relative="1" as="geometry">
            <mxPoint y="-9" as="offset" />
          </mxGeometry>
        </mxCell>
        <mxCell id="o6b-7TuuPEHLtJqzvapH-121" value="" style="group" parent="1" vertex="1" connectable="0">
          <mxGeometry x="20.001052631578958" y="89.99909090909091" width="74.76780185758514" height="208.72727272727272" as="geometry" />
        </mxCell>
        <mxCell id="o6b-7TuuPEHLtJqzvapH-1" value="" style="rounded=0;whiteSpace=wrap;html=1;direction=south;container=0;" parent="o6b-7TuuPEHLtJqzvapH-121" vertex="1">
          <mxGeometry x="6.230650154798752" width="62.30650154798762" height="149.09090909090907" as="geometry" />
        </mxCell>
        <mxCell id="o6b-7TuuPEHLtJqzvapH-2" value="" style="triangle;whiteSpace=wrap;html=1;container=0;" parent="o6b-7TuuPEHLtJqzvapH-121" vertex="1">
          <mxGeometry x="6.230650154798752" y="119.27272727272725" width="12.461300309597524" height="29.818181818181817" as="geometry" />
        </mxCell>
        <mxCell id="o6b-7TuuPEHLtJqzvapH-12" value="Data register" style="text;html=1;align=center;verticalAlign=middle;whiteSpace=wrap;rounded=0;container=0;" parent="o6b-7TuuPEHLtJqzvapH-121" vertex="1">
          <mxGeometry y="163.99999999999997" width="74.76780185758514" height="44.72727272727273" as="geometry" />
        </mxCell>
        <mxCell id="o6b-7TuuPEHLtJqzvapH-128" value="" style="endArrow=classic;html=1;rounded=0;exitX=0.435;exitY=-0.057;exitDx=0;exitDy=0;exitPerimeter=0;entryX=0.089;entryY=-0.005;entryDx=0;entryDy=0;entryPerimeter=0;jumpStyle=arc;" parent="1" source="o6b-7TuuPEHLtJqzvapH-3" target="o6b-7TuuPEHLtJqzvapH-36" edge="1">
          <mxGeometry width="50" height="50" relative="1" as="geometry">
            <mxPoint x="60" y="350" as="sourcePoint" />
            <mxPoint x="220" y="270" as="targetPoint" />
            <Array as="points">
              <mxPoint x="230" y="383" />
            </Array>
          </mxGeometry>
        </mxCell>
        <mxCell id="o6b-7TuuPEHLtJqzvapH-130" value="uart_en" style="edgeLabel;align=center;verticalAlign=middle;resizable=0;points=[];labelBackgroundColor=none;" parent="o6b-7TuuPEHLtJqzvapH-128" vertex="1" connectable="0">
          <mxGeometry x="-0.5314" relative="1" as="geometry">
            <mxPoint x="-98" y="-5" as="offset" />
          </mxGeometry>
        </mxCell>
        <mxCell id="o6b-7TuuPEHLtJqzvapH-133" value="" style="endArrow=classic;html=1;rounded=0;entryX=0.108;entryY=-0.018;entryDx=0;entryDy=0;entryPerimeter=0;exitX=0.815;exitY=-0.023;exitDx=0;exitDy=0;exitPerimeter=0;jumpStyle=arc;" parent="1" source="o6b-7TuuPEHLtJqzvapH-3" target="o6b-7TuuPEHLtJqzvapH-36" edge="1">
          <mxGeometry width="50" height="50" relative="1" as="geometry">
            <mxPoint x="42.461300309597526" y="885.090909090909" as="sourcePoint" />
            <mxPoint x="142" y="885" as="targetPoint" />
            <Array as="points">
              <mxPoint x="250" y="440" />
            </Array>
          </mxGeometry>
        </mxCell>
        <mxCell id="o6b-7TuuPEHLtJqzvapH-134" value="" style="endArrow=classic;html=1;rounded=0;exitX=0.885;exitY=0.019;exitDx=0;exitDy=0;exitPerimeter=0;entryX=0.059;entryY=-0.005;entryDx=0;entryDy=0;entryPerimeter=0;jumpStyle=arc;" parent="1" source="o6b-7TuuPEHLtJqzvapH-3" target="o6b-7TuuPEHLtJqzvapH-36" edge="1">
          <mxGeometry width="50" height="50" relative="1" as="geometry">
            <mxPoint x="60" y="710" as="sourcePoint" />
            <mxPoint x="110" y="660" as="targetPoint" />
            <Array as="points">
              <mxPoint x="202" y="450" />
            </Array>
          </mxGeometry>
        </mxCell>
        <mxCell id="o6b-7TuuPEHLtJqzvapH-135" value="rx_en" style="edgeLabel;align=center;verticalAlign=middle;resizable=0;points=[];rotation=90;labelBackgroundColor=none;" parent="o6b-7TuuPEHLtJqzvapH-134" vertex="1" connectable="0">
          <mxGeometry x="0.8362" y="2" relative="1" as="geometry">
            <mxPoint x="6" as="offset" />
          </mxGeometry>
        </mxCell>
        <mxCell id="o6b-7TuuPEHLtJqzvapH-137" value="" style="endArrow=classic;html=1;rounded=0;entryX=0.629;entryY=1.027;entryDx=0;entryDy=0;entryPerimeter=0;exitX=0.25;exitY=0;exitDx=0;exitDy=0;jumpStyle=arc;" parent="1" source="o6b-7TuuPEHLtJqzvapH-112" target="o6b-7TuuPEHLtJqzvapH-7" edge="1">
          <mxGeometry width="50" height="50" relative="1" as="geometry">
            <mxPoint x="300" y="470" as="sourcePoint" />
            <mxPoint x="346.6100000000001" y="321.32000000000005" as="targetPoint" />
            <Array as="points">
              <mxPoint x="1320" y="370" />
              <mxPoint x="1320" y="300" />
              <mxPoint x="710" y="300" />
              <mxPoint x="710" y="360" />
              <mxPoint x="480" y="360" />
              <mxPoint x="480" y="320" />
              <mxPoint x="200" y="320" />
              <mxPoint x="200" y="189" />
            </Array>
          </mxGeometry>
        </mxCell>
        <mxCell id="o6b-7TuuPEHLtJqzvapH-138" value="tx_fifo_wr_en" style="edgeLabel;html=1;align=center;verticalAlign=middle;resizable=0;points=[];" parent="o6b-7TuuPEHLtJqzvapH-137" vertex="1" connectable="0">
          <mxGeometry x="-0.9308" y="-1" relative="1" as="geometry">
            <mxPoint x="-5" y="-13" as="offset" />
          </mxGeometry>
        </mxCell>
        <mxCell id="o6b-7TuuPEHLtJqzvapH-139" value="Rx_FIFO" style="rounded=0;whiteSpace=wrap;html=1;direction=south;container=0;" parent="1" vertex="1">
          <mxGeometry x="959.9973065015479" y="419.17909090909086" width="62.30650154798762" height="149.09090909090907" as="geometry" />
        </mxCell>
        <mxCell id="o6b-7TuuPEHLtJqzvapH-140" value="" style="endArrow=classic;html=1;rounded=0;exitX=0.344;exitY=-0.081;exitDx=0;exitDy=0;exitPerimeter=0;" parent="1" source="o6b-7TuuPEHLtJqzvapH-139" edge="1">
          <mxGeometry width="50" height="50" relative="1" as="geometry">
            <mxPoint x="740" y="430" as="sourcePoint" />
            <mxPoint x="1158" y="470" as="targetPoint" />
          </mxGeometry>
        </mxCell>
        <mxCell id="o6b-7TuuPEHLtJqzvapH-141" value="rx_fifo_empty" style="edgeLabel;align=center;verticalAlign=middle;resizable=0;points=[];labelBackgroundColor=none;" parent="o6b-7TuuPEHLtJqzvapH-140" vertex="1" connectable="0">
          <mxGeometry x="0.3335" y="1" relative="1" as="geometry">
            <mxPoint x="-54" y="-7" as="offset" />
          </mxGeometry>
        </mxCell>
        <mxCell id="o6b-7TuuPEHLtJqzvapH-142" value="" style="endArrow=classic;html=1;rounded=0;entryX=0.862;entryY=0.975;entryDx=0;entryDy=0;entryPerimeter=0;jumpStyle=arc;" parent="1" target="o6b-7TuuPEHLtJqzvapH-7" edge="1">
          <mxGeometry width="50" height="50" relative="1" as="geometry">
            <mxPoint x="280" y="795" as="sourcePoint" />
            <mxPoint x="350" y="430" as="targetPoint" />
            <Array as="points">
              <mxPoint x="270" y="223" />
            </Array>
          </mxGeometry>
        </mxCell>
        <mxCell id="o6b-7TuuPEHLtJqzvapH-144" value="tx_fifo_rd_en" style="edgeLabel;align=center;verticalAlign=middle;resizable=0;points=[];rotation=270;labelBackgroundColor=none;" parent="o6b-7TuuPEHLtJqzvapH-142" vertex="1" connectable="0">
          <mxGeometry x="0.8296" y="1" relative="1" as="geometry">
            <mxPoint x="-9" y="9" as="offset" />
          </mxGeometry>
        </mxCell>
        <mxCell id="o6b-7TuuPEHLtJqzvapH-145" value="" style="endArrow=classic;html=1;rounded=0;exitX=0.08;exitY=-0.005;exitDx=0;exitDy=0;exitPerimeter=0;entryX=0.14;entryY=1;entryDx=0;entryDy=0;entryPerimeter=0;jumpStyle=arc;" parent="1" source="o6b-7TuuPEHLtJqzvapH-112" target="o6b-7TuuPEHLtJqzvapH-139" edge="1">
          <mxGeometry width="50" height="50" relative="1" as="geometry">
            <mxPoint x="1000" y="470" as="sourcePoint" />
            <mxPoint x="1090" y="370" as="targetPoint" />
            <Array as="points">
              <mxPoint x="1360" y="334" />
              <mxPoint x="1360" y="280" />
              <mxPoint x="920" y="280" />
              <mxPoint x="920" y="440" />
            </Array>
          </mxGeometry>
        </mxCell>
        <mxCell id="o6b-7TuuPEHLtJqzvapH-147" value="rx_fifo_rd_en" style="edgeLabel;html=1;align=center;verticalAlign=middle;resizable=0;points=[];" parent="o6b-7TuuPEHLtJqzvapH-145" vertex="1" connectable="0">
          <mxGeometry x="-0.8924" y="2" relative="1" as="geometry">
            <mxPoint x="-7" y="-6" as="offset" />
          </mxGeometry>
        </mxCell>
        <mxCell id="o6b-7TuuPEHLtJqzvapH-150" value="" style="endArrow=classic;html=1;rounded=0;exitX=0.5;exitY=0;exitDx=0;exitDy=0;entryX=0.242;entryY=-0.005;entryDx=0;entryDy=0;entryPerimeter=0;jumpStyle=arc;" parent="1" source="o6b-7TuuPEHLtJqzvapH-7" target="o6b-7TuuPEHLtJqzvapH-36" edge="1">
          <mxGeometry width="50" height="50" relative="1" as="geometry">
            <mxPoint x="770" y="520" as="sourcePoint" />
            <mxPoint x="820" y="470" as="targetPoint" />
            <Array as="points">
              <mxPoint x="390" y="169" />
            </Array>
          </mxGeometry>
        </mxCell>
        <mxCell id="o6b-7TuuPEHLtJqzvapH-152" value="" style="endArrow=classic;html=1;rounded=0;entryX=0.391;entryY=0.995;entryDx=0;entryDy=0;exitX=0.5;exitY=1;exitDx=0;exitDy=0;entryPerimeter=0;jumpStyle=arc;" parent="1" source="o6b-7TuuPEHLtJqzvapH-115" target="o6b-7TuuPEHLtJqzvapH-139" edge="1">
          <mxGeometry width="50" height="50" relative="1" as="geometry">
            <mxPoint x="1160" y="620" as="sourcePoint" />
            <mxPoint x="740" y="510" as="targetPoint" />
            <Array as="points">
              <mxPoint x="910" y="640" />
              <mxPoint x="910" y="477" />
            </Array>
          </mxGeometry>
        </mxCell>
        <mxCell id="o6b-7TuuPEHLtJqzvapH-153" value="rx_fifo_data" style="edgeLabel;align=center;verticalAlign=middle;resizable=0;points=[];labelBackgroundColor=none;" parent="o6b-7TuuPEHLtJqzvapH-152" vertex="1" connectable="0">
          <mxGeometry x="0.8772" relative="1" as="geometry">
            <mxPoint x="-12" y="-11" as="offset" />
          </mxGeometry>
        </mxCell>
        <mxCell id="o6b-7TuuPEHLtJqzvapH-155" value="" style="endArrow=classic;html=1;rounded=0;exitX=0.149;exitY=-0.034;exitDx=0;exitDy=0;exitPerimeter=0;entryX=0.192;entryY=0.96;entryDx=0;entryDy=0;entryPerimeter=0;jumpStyle=arc;" parent="1" source="o6b-7TuuPEHLtJqzvapH-139" target="o6b-7TuuPEHLtJqzvapH-1" edge="1">
          <mxGeometry width="50" height="50" relative="1" as="geometry">
            <mxPoint x="1150" y="210" as="sourcePoint" />
            <mxPoint x="1200" y="160" as="targetPoint" />
            <Array as="points">
              <mxPoint x="1050" y="441" />
              <mxPoint x="1050" y="40" />
              <mxPoint x="10" y="40" />
              <mxPoint x="10" y="120" />
            </Array>
          </mxGeometry>
        </mxCell>
        <mxCell id="o6b-7TuuPEHLtJqzvapH-156" value="rx_data" style="edgeLabel;align=center;verticalAlign=middle;resizable=0;points=[];labelBackgroundColor=none;rotation=270;" parent="o6b-7TuuPEHLtJqzvapH-155" vertex="1" connectable="0">
          <mxGeometry x="-0.0226" y="-3" relative="1" as="geometry">
            <mxPoint x="328" y="378" as="offset" />
          </mxGeometry>
        </mxCell>
        <mxCell id="o6b-7TuuPEHLtJqzvapH-164" value="=" style="ellipse;whiteSpace=wrap;html=1;container=0;" parent="1" vertex="1">
          <mxGeometry x="1060.0002167182663" y="348.36181818181814" width="24.922600619195048" height="29.81818181818182" as="geometry" />
        </mxCell>
        <mxCell id="o6b-7TuuPEHLtJqzvapH-165" value="" style="endArrow=classic;html=1;rounded=0;entryX=0.5;entryY=0;entryDx=0;entryDy=0;startArrow=oval;startFill=1;jumpStyle=arc;exitX=0.823;exitY=-0.023;exitDx=0;exitDy=0;exitPerimeter=0;" parent="1" source="AXFnRNEYjVkzy-_qRL-M-2" target="o6b-7TuuPEHLtJqzvapH-164" edge="1">
          <mxGeometry width="50" height="50" relative="1" as="geometry">
            <mxPoint x="1070" y="140" as="sourcePoint" />
            <mxPoint x="1050" y="240" as="targetPoint" />
            <Array as="points">
              <mxPoint x="1072" y="250" />
            </Array>
          </mxGeometry>
        </mxCell>
        <mxCell id="AXFnRNEYjVkzy-_qRL-M-5" value="rx_parity_add" style="edgeLabel;html=1;align=center;verticalAlign=middle;resizable=0;points=[];" parent="o6b-7TuuPEHLtJqzvapH-165" vertex="1" connectable="0">
          <mxGeometry x="-0.8547" y="1" relative="1" as="geometry">
            <mxPoint x="-2" y="-9" as="offset" />
          </mxGeometry>
        </mxCell>
        <mxCell id="o6b-7TuuPEHLtJqzvapH-166" value="" style="endArrow=classic;html=1;rounded=0;entryX=0.5;entryY=1;entryDx=0;entryDy=0;exitX=0.921;exitY=0.015;exitDx=0;exitDy=0;exitPerimeter=0;jumpStyle=arc;" parent="1" source="o6b-7TuuPEHLtJqzvapH-36" target="o6b-7TuuPEHLtJqzvapH-164" edge="1">
          <mxGeometry width="50" height="50" relative="1" as="geometry">
            <mxPoint x="970" y="620" as="sourcePoint" />
            <mxPoint x="1020" y="570" as="targetPoint" />
          </mxGeometry>
        </mxCell>
        <mxCell id="o6b-7TuuPEHLtJqzvapH-169" value="recieve_parity" style="edgeLabel;align=center;verticalAlign=middle;resizable=0;points=[];rotation=90;labelBackgroundColor=none;fontStyle=0" parent="o6b-7TuuPEHLtJqzvapH-166" vertex="1" connectable="0">
          <mxGeometry x="-0.7995" y="-1" relative="1" as="geometry">
            <mxPoint x="-13" y="-4" as="offset" />
          </mxGeometry>
        </mxCell>
        <mxCell id="o6b-7TuuPEHLtJqzvapH-167" value="" style="endArrow=classic;html=1;rounded=0;exitX=1;exitY=0.5;exitDx=0;exitDy=0;entryX=0.221;entryY=0.995;entryDx=0;entryDy=0;entryPerimeter=0;" parent="1" source="o6b-7TuuPEHLtJqzvapH-164" target="o6b-7TuuPEHLtJqzvapH-112" edge="1">
          <mxGeometry width="50" height="50" relative="1" as="geometry">
            <mxPoint x="970" y="470" as="sourcePoint" />
            <mxPoint x="1158" y="363" as="targetPoint" />
          </mxGeometry>
        </mxCell>
        <mxCell id="o6b-7TuuPEHLtJqzvapH-168" value="parity_error" style="edgeLabel;align=center;verticalAlign=middle;resizable=0;points=[];labelBackgroundColor=none;" parent="o6b-7TuuPEHLtJqzvapH-167" vertex="1" connectable="0">
          <mxGeometry x="-0.066" y="3" relative="1" as="geometry">
            <mxPoint y="-9" as="offset" />
          </mxGeometry>
        </mxCell>
        <mxCell id="o6b-7TuuPEHLtJqzvapH-170" value="" style="endArrow=classic;html=1;rounded=0;entryX=0.81;entryY=1;entryDx=0;entryDy=0;entryPerimeter=0;jumpStyle=arc;" parent="1" target="o6b-7TuuPEHLtJqzvapH-139" edge="1">
          <mxGeometry width="50" height="50" relative="1" as="geometry">
            <mxPoint x="920" y="790" as="sourcePoint" />
            <mxPoint x="900" y="610" as="targetPoint" />
            <Array as="points">
              <mxPoint x="920" y="540" />
            </Array>
          </mxGeometry>
        </mxCell>
        <mxCell id="o6b-7TuuPEHLtJqzvapH-171" value="rx_fifo_wr_en" style="edgeLabel;align=center;verticalAlign=middle;resizable=0;points=[];labelBackgroundColor=none;rotation=90;" parent="o6b-7TuuPEHLtJqzvapH-170" vertex="1" connectable="0">
          <mxGeometry x="-0.7274" y="-3" relative="1" as="geometry">
            <mxPoint x="7" y="1" as="offset" />
          </mxGeometry>
        </mxCell>
        <mxCell id="o6b-7TuuPEHLtJqzvapH-172" value="" style="endArrow=none;html=1;rounded=0;" parent="1" edge="1">
          <mxGeometry width="50" height="50" relative="1" as="geometry">
            <mxPoint x="1070.84" y="370" as="sourcePoint" />
            <mxPoint x="1074.09" y="356.73" as="targetPoint" />
            <Array as="points">
              <mxPoint x="1074.09" y="356.73" />
            </Array>
          </mxGeometry>
        </mxCell>
        <mxCell id="o6b-7TuuPEHLtJqzvapH-174" value="" style="endArrow=classic;html=1;rounded=0;exitX=0.941;exitY=0.017;exitDx=0;exitDy=0;exitPerimeter=0;jumpStyle=arc;" parent="1" source="o6b-7TuuPEHLtJqzvapH-36" edge="1">
          <mxGeometry width="50" height="50" relative="1" as="geometry">
            <mxPoint x="1190" y="540" as="sourcePoint" />
            <mxPoint x="1160" y="400" as="targetPoint" />
            <Array as="points">
              <mxPoint x="1090" y="400" />
            </Array>
          </mxGeometry>
        </mxCell>
        <mxCell id="o6b-7TuuPEHLtJqzvapH-175" value="stop_bit_error" style="edgeLabel;align=center;verticalAlign=middle;resizable=0;points=[];labelBackgroundColor=none;" parent="o6b-7TuuPEHLtJqzvapH-174" vertex="1" connectable="0">
          <mxGeometry x="0.8355" relative="1" as="geometry">
            <mxPoint y="-14" as="offset" />
          </mxGeometry>
        </mxCell>
        <mxCell id="o6b-7TuuPEHLtJqzvapH-176" value="" style="endArrow=classic;html=1;rounded=0;entryX=0.75;entryY=0;entryDx=0;entryDy=0;exitX=0.951;exitY=-0.015;exitDx=0;exitDy=0;exitPerimeter=0;" parent="1" source="o6b-7TuuPEHLtJqzvapH-36" target="o6b-7TuuPEHLtJqzvapH-115" edge="1">
          <mxGeometry width="50" height="50" relative="1" as="geometry">
            <mxPoint x="1190" y="540" as="sourcePoint" />
            <mxPoint x="1240" y="490" as="targetPoint" />
            <Array as="points">
              <mxPoint x="1102" y="740" />
              <mxPoint x="1280" y="740" />
              <mxPoint x="1280" y="681" />
            </Array>
          </mxGeometry>
        </mxCell>
        <mxCell id="o6b-7TuuPEHLtJqzvapH-177" value="rx_shift_reg_en" style="edgeLabel;align=center;verticalAlign=middle;resizable=0;points=[];labelBackgroundColor=none;" parent="o6b-7TuuPEHLtJqzvapH-176" vertex="1" connectable="0">
          <mxGeometry x="0.8093" y="2" relative="1" as="geometry">
            <mxPoint x="14" y="-18" as="offset" />
          </mxGeometry>
        </mxCell>
        <mxCell id="o6b-7TuuPEHLtJqzvapH-178" value="" style="endArrow=classic;html=1;rounded=0;entryX=0.969;entryY=0.049;entryDx=0;entryDy=0;entryPerimeter=0;startArrow=oval;startFill=1;" parent="1" target="o6b-7TuuPEHLtJqzvapH-36" edge="1">
          <mxGeometry width="50" height="50" relative="1" as="geometry">
            <mxPoint x="1390" y="600" as="sourcePoint" />
            <mxPoint x="1240" y="490" as="targetPoint" />
            <Array as="points">
              <mxPoint x="1390" y="760" />
              <mxPoint x="1120" y="760" />
            </Array>
          </mxGeometry>
        </mxCell>
        <mxCell id="o6b-7TuuPEHLtJqzvapH-179" value="" style="endArrow=classic;html=1;rounded=0;exitX=0.628;exitY=-0.011;exitDx=0;exitDy=0;exitPerimeter=0;entryX=0.669;entryY=1.044;entryDx=0;entryDy=0;entryPerimeter=0;jumpStyle=arc;" parent="1" source="o6b-7TuuPEHLtJqzvapH-139" target="o6b-7TuuPEHLtJqzvapH-112" edge="1">
          <mxGeometry width="50" height="50" relative="1" as="geometry">
            <mxPoint x="1140" y="410" as="sourcePoint" />
            <mxPoint x="1190" y="360" as="targetPoint" />
            <Array as="points">
              <mxPoint x="1110" y="513" />
              <mxPoint x="1110" y="454" />
            </Array>
          </mxGeometry>
        </mxCell>
        <mxCell id="o6b-7TuuPEHLtJqzvapH-180" value="rx_fifo_full" style="edgeLabel;align=center;verticalAlign=middle;resizable=0;points=[];labelBackgroundColor=none;" parent="o6b-7TuuPEHLtJqzvapH-179" vertex="1" connectable="0">
          <mxGeometry x="0.7285" y="1" relative="1" as="geometry">
            <mxPoint y="-13" as="offset" />
          </mxGeometry>
        </mxCell>
        <mxCell id="o6b-7TuuPEHLtJqzvapH-181" value="" style="endArrow=classic;html=1;rounded=0;entryX=0.09;entryY=0.929;entryDx=0;entryDy=0;entryPerimeter=0;jumpStyle=arc;startArrow=oval;startFill=1;exitX=0.75;exitY=0;exitDx=0;exitDy=0;" parent="1" source="o6b-7TuuPEHLtJqzvapH-7" target="o6b-7TuuPEHLtJqzvapH-112" edge="1">
          <mxGeometry width="50" height="50" relative="1" as="geometry">
            <mxPoint x="380" y="300" as="sourcePoint" />
            <mxPoint x="620" y="140" as="targetPoint" />
            <Array as="points">
              <mxPoint x="370" y="207" />
              <mxPoint x="370" y="390" />
              <mxPoint x="750" y="390" />
              <mxPoint x="750" y="270" />
              <mxPoint x="1120" y="270" />
              <mxPoint x="1120" y="338" />
            </Array>
          </mxGeometry>
        </mxCell>
        <mxCell id="t66Qm65zLAG-zzx-BnkY-1" value="tx_fifo_full" style="edgeLabel;html=1;align=center;verticalAlign=middle;resizable=0;points=[];rotation=90;" vertex="1" connectable="0" parent="o6b-7TuuPEHLtJqzvapH-181">
          <mxGeometry x="-0.8655" relative="1" as="geometry">
            <mxPoint x="-10" y="5" as="offset" />
          </mxGeometry>
        </mxCell>
        <mxCell id="iAOrNaMQ7t3v7uMK3tL0-1" value="" style="endArrow=classic;html=1;rounded=0;exitX=0.982;exitY=-0.01;exitDx=0;exitDy=0;exitPerimeter=0;entryX=0.889;entryY=0.978;entryDx=0;entryDy=0;entryPerimeter=0;jumpStyle=arc;" parent="1" source="o6b-7TuuPEHLtJqzvapH-36" target="o6b-7TuuPEHLtJqzvapH-112" edge="1">
          <mxGeometry width="50" height="50" relative="1" as="geometry">
            <mxPoint x="1220" y="630" as="sourcePoint" />
            <mxPoint x="1270" y="580" as="targetPoint" />
            <Array as="points">
              <mxPoint x="1130" y="500" />
            </Array>
          </mxGeometry>
        </mxCell>
        <mxCell id="iAOrNaMQ7t3v7uMK3tL0-2" value="busy" style="edgeLabel;html=1;align=center;verticalAlign=middle;resizable=0;points=[];" parent="iAOrNaMQ7t3v7uMK3tL0-1" vertex="1" connectable="0">
          <mxGeometry x="0.8965" relative="1" as="geometry">
            <mxPoint x="-5" y="-9" as="offset" />
          </mxGeometry>
        </mxCell>
        <mxCell id="AXFnRNEYjVkzy-_qRL-M-2" value="parity&lt;br&gt;calculate" style="rounded=0;whiteSpace=wrap;html=1;direction=south;" parent="1" vertex="1">
          <mxGeometry x="472.38" y="150" width="60" height="120" as="geometry" />
        </mxCell>
        <mxCell id="AXFnRNEYjVkzy-_qRL-M-3" value="" style="endArrow=classic;html=1;rounded=0;entryX=0.583;entryY=0.977;entryDx=0;entryDy=0;entryPerimeter=0;startArrow=oval;startFill=1;" parent="1" target="AXFnRNEYjVkzy-_qRL-M-2" edge="1">
          <mxGeometry width="50" height="50" relative="1" as="geometry">
            <mxPoint x="400" y="110" as="sourcePoint" />
            <mxPoint x="370" y="320" as="targetPoint" />
            <Array as="points">
              <mxPoint x="400" y="220" />
            </Array>
          </mxGeometry>
        </mxCell>
        <mxCell id="AXFnRNEYjVkzy-_qRL-M-4" value="" style="endArrow=classic;html=1;rounded=0;startArrow=oval;startFill=1;jumpStyle=arc;" parent="1" edge="1">
          <mxGeometry width="50" height="50" relative="1" as="geometry">
            <mxPoint x="420" y="40" as="sourcePoint" />
            <mxPoint x="470" y="200" as="targetPoint" />
            <Array as="points">
              <mxPoint x="420" y="200" />
            </Array>
          </mxGeometry>
        </mxCell>
        <mxCell id="AXFnRNEYjVkzy-_qRL-M-6" value="" style="endArrow=classic;html=1;rounded=0;exitX=0.206;exitY=0.007;exitDx=0;exitDy=0;exitPerimeter=0;entryX=0.25;entryY=1;entryDx=0;entryDy=0;" parent="1" source="o6b-7TuuPEHLtJqzvapH-36" target="o6b-7TuuPEHLtJqzvapH-22" edge="1">
          <mxGeometry width="50" height="50" relative="1" as="geometry">
            <mxPoint x="690" y="550" as="sourcePoint" />
            <mxPoint x="740" y="500" as="targetPoint" />
            <Array as="points">
              <mxPoint x="350" y="520" />
            </Array>
          </mxGeometry>
        </mxCell>
        <mxCell id="WWeA95So2KbgSDVGYI0J-1" value="rx_baud_rate_reg_en" style="edgeLabel;align=center;verticalAlign=middle;resizable=0;points=[];labelBackgroundColor=none;rotation=90;" parent="AXFnRNEYjVkzy-_qRL-M-6" vertex="1" connectable="0">
          <mxGeometry x="-0.4915" relative="1" as="geometry">
            <mxPoint x="10" y="39" as="offset" />
          </mxGeometry>
        </mxCell>
        <mxCell id="WWeA95So2KbgSDVGYI0J-3" value="" style="endArrow=classic;html=1;rounded=0;" parent="1" edge="1">
          <mxGeometry width="50" height="50" relative="1" as="geometry">
            <mxPoint x="510" y="560" as="sourcePoint" />
            <mxPoint x="540" y="790" as="targetPoint" />
            <Array as="points">
              <mxPoint x="540" y="560" />
            </Array>
          </mxGeometry>
        </mxCell>
        <mxCell id="WWeA95So2KbgSDVGYI0J-4" value="rx_baud_rate" style="edgeLabel;html=1;align=center;verticalAlign=middle;resizable=0;points=[];rotation=90;" parent="WWeA95So2KbgSDVGYI0J-3" vertex="1" connectable="0">
          <mxGeometry x="0.4135" y="-1" relative="1" as="geometry">
            <mxPoint x="-7" y="30" as="offset" />
          </mxGeometry>
        </mxCell>
        <mxCell id="WWeA95So2KbgSDVGYI0J-5" value="" style="endArrow=classic;html=1;rounded=0;exitX=0.61;exitY=0.007;exitDx=0;exitDy=0;exitPerimeter=0;entryX=0.25;entryY=1;entryDx=0;entryDy=0;" parent="1" source="o6b-7TuuPEHLtJqzvapH-36" target="o6b-7TuuPEHLtJqzvapH-39" edge="1">
          <mxGeometry width="50" height="50" relative="1" as="geometry">
            <mxPoint x="690" y="550" as="sourcePoint" />
            <mxPoint x="740" y="500" as="targetPoint" />
            <Array as="points">
              <mxPoint x="758" y="565" />
            </Array>
          </mxGeometry>
        </mxCell>
        <mxCell id="WWeA95So2KbgSDVGYI0J-6" value="rx_bit_count_reg_en" style="edgeLabel;html=1;align=center;verticalAlign=middle;resizable=0;points=[];rotation=90;" parent="WWeA95So2KbgSDVGYI0J-5" vertex="1" connectable="0">
          <mxGeometry x="-0.1291" relative="1" as="geometry">
            <mxPoint x="12" y="43" as="offset" />
          </mxGeometry>
        </mxCell>
        <mxCell id="XeZTWH8QftiyPUodoZdg-2" value="" style="endArrow=classic;html=1;rounded=0;exitX=0.489;exitY=-0.017;exitDx=0;exitDy=0;exitPerimeter=0;entryX=0.723;entryY=0.009;entryDx=0;entryDy=0;entryPerimeter=0;" parent="1" source="o6b-7TuuPEHLtJqzvapH-39" target="o6b-7TuuPEHLtJqzvapH-36" edge="1">
          <mxGeometry width="50" height="50" relative="1" as="geometry">
            <mxPoint x="810" y="660" as="sourcePoint" />
            <mxPoint x="860" y="610" as="targetPoint" />
            <Array as="points">
              <mxPoint x="870" y="600" />
            </Array>
          </mxGeometry>
        </mxCell>
        <mxCell id="XeZTWH8QftiyPUodoZdg-3" value="tx_bit_count" style="edgeLabel;html=1;align=center;verticalAlign=middle;resizable=0;points=[];rotation=90;" parent="XeZTWH8QftiyPUodoZdg-2" vertex="1" connectable="0">
          <mxGeometry x="0.3827" relative="1" as="geometry">
            <mxPoint x="9" y="17" as="offset" />
          </mxGeometry>
        </mxCell>
        <mxCell id="lwwkewdSWQkWrqhKd3nm-1" value="" style="endArrow=classic;html=1;rounded=0;exitX=0.851;exitY=0.004;exitDx=0;exitDy=0;exitPerimeter=0;entryX=0.5;entryY=1;entryDx=0;entryDy=0;jumpStyle=arc;" edge="1" parent="1" source="o6b-7TuuPEHLtJqzvapH-36" target="o6b-7TuuPEHLtJqzvapH-112">
          <mxGeometry width="50" height="50" relative="1" as="geometry">
            <mxPoint x="1000" y="790" as="sourcePoint" />
            <mxPoint x="1120" y="580" as="targetPoint" />
            <Array as="points">
              <mxPoint x="1001" y="600" />
              <mxPoint x="1120" y="600" />
              <mxPoint x="1120" y="420" />
            </Array>
          </mxGeometry>
        </mxCell>
        <mxCell id="lwwkewdSWQkWrqhKd3nm-2" value="status_reg_en" style="edgeLabel;html=1;align=center;verticalAlign=middle;resizable=0;points=[];rotation=90;" vertex="1" connectable="0" parent="lwwkewdSWQkWrqhKd3nm-1">
          <mxGeometry x="-0.7944" relative="1" as="geometry">
            <mxPoint x="-10" y="14" as="offset" />
          </mxGeometry>
        </mxCell>
      </root>
    </mxGraphModel>
  </diagram>
  <diagram id="4x6lFXo7BKxBeUy2kg6I" name="controller">
    <mxGraphModel dx="2610" dy="2164" grid="1" gridSize="10" guides="1" tooltips="1" connect="1" arrows="1" fold="1" page="1" pageScale="1" pageWidth="850" pageHeight="1100" math="0" shadow="0">
      <root>
        <mxCell id="0" />
        <mxCell id="1" parent="0" />
        <mxCell id="aUZCRPm_g2SsC7SWf3nu-1" value="ideal" style="ellipse;whiteSpace=wrap;html=1;fontSize=12;container=0;" parent="1" vertex="1">
          <mxGeometry x="1215.6944444444443" y="-25.67073170731703" width="151.66666666666666" height="124.39024390243902" as="geometry" />
        </mxCell>
        <mxCell id="aUZCRPm_g2SsC7SWf3nu-2" value="load" style="ellipse;whiteSpace=wrap;html=1;fontSize=12;container=0;" parent="1" vertex="1">
          <mxGeometry x="1215.6944444444443" y="596.2804878048781" width="151.66666666666666" height="124.39024390243902" as="geometry" />
        </mxCell>
        <mxCell id="aUZCRPm_g2SsC7SWf3nu-3" value="transmit" style="ellipse;whiteSpace=wrap;html=1;fontSize=12;container=0;" parent="1" vertex="1">
          <mxGeometry x="650.0033333333333" y="1190" width="151.66666666666666" height="124.39024390243902" as="geometry" />
        </mxCell>
        <mxCell id="aUZCRPm_g2SsC7SWf3nu-5" value="data_bit" style="ellipse;whiteSpace=wrap;html=1;fontSize=12;container=0;" parent="1" vertex="1">
          <mxGeometry x="356.25" y="1824.6341463414637" width="151.66666666666666" height="124.39024390243902" as="geometry" />
        </mxCell>
        <mxCell id="aUZCRPm_g2SsC7SWf3nu-6" value="parity" style="ellipse;whiteSpace=wrap;html=1;fontSize=12;container=0;" parent="1" vertex="1">
          <mxGeometry x="27.638888888888857" y="1451.4634146341464" width="151.66666666666666" height="124.39024390243902" as="geometry" />
        </mxCell>
        <mxCell id="aUZCRPm_g2SsC7SWf3nu-7" value="stop_bit" style="ellipse;whiteSpace=wrap;html=1;fontSize=12;container=0;" parent="1" vertex="1">
          <mxGeometry x="204.58333333333326" y="845.0609756097563" width="151.66666666666666" height="124.39024390243902" as="geometry" />
        </mxCell>
        <mxCell id="22G1ExoSwAQdDkdItCL2-1" value="" style="endArrow=classic;html=1;rounded=0;exitX=0;exitY=0.5;exitDx=0;exitDy=0;entryX=0.113;entryY=0.16;entryDx=0;entryDy=0;curved=1;fontSize=12;entryPerimeter=0;" parent="1" source="aUZCRPm_g2SsC7SWf3nu-1" target="aUZCRPm_g2SsC7SWf3nu-2" edge="1">
          <mxGeometry width="50" height="50" relative="1" as="geometry">
            <mxPoint x="571.1111111111111" y="876.1585365853659" as="sourcePoint" />
            <mxPoint x="634.3055555555554" y="798.4146341463415" as="targetPoint" />
            <Array as="points">
              <mxPoint x="899.7222222222222" y="223.109756097561" />
            </Array>
          </mxGeometry>
        </mxCell>
        <mxCell id="22G1ExoSwAQdDkdItCL2-15" value="uart_en&#xa;_______&#xa;!uart_busy" style="edgeLabel;align=center;verticalAlign=middle;resizable=0;points=[];labelBackgroundColor=none;fontSize=12;container=0;" parent="22G1ExoSwAQdDkdItCL2-1" vertex="1" connectable="0">
          <mxGeometry x="0.3193" y="59" relative="1" as="geometry">
            <mxPoint x="-33" y="-13" as="offset" />
          </mxGeometry>
        </mxCell>
        <mxCell id="22G1ExoSwAQdDkdItCL2-2" value="" style="endArrow=classic;html=1;rounded=0;exitX=0;exitY=1;exitDx=0;exitDy=0;entryX=0.5;entryY=0;entryDx=0;entryDy=0;curved=1;fontSize=12;" parent="1" source="aUZCRPm_g2SsC7SWf3nu-2" target="aUZCRPm_g2SsC7SWf3nu-3" edge="1">
          <mxGeometry width="50" height="50" relative="1" as="geometry">
            <mxPoint x="571.1111111111111" y="969.4512195121952" as="sourcePoint" />
            <mxPoint x="634.3055555555554" y="891.7073170731708" as="targetPoint" />
            <Array as="points">
              <mxPoint x="962.9166666666665" y="736.219512195122" />
            </Array>
          </mxGeometry>
        </mxCell>
        <mxCell id="22G1ExoSwAQdDkdItCL2-19" value="(tx_en &amp;&amp;  !tx_fifo_empty) || (rx_en &amp;&amp;  !rx_fifo_full)&#xa;_______________________________&#xa;baud_rate_reg_en" style="edgeLabel;align=center;verticalAlign=middle;resizable=0;points=[];labelBackgroundColor=none;fontSize=12;container=0;" parent="22G1ExoSwAQdDkdItCL2-2" vertex="1" connectable="0">
          <mxGeometry x="0.2494" y="-67" relative="1" as="geometry">
            <mxPoint x="136" y="13" as="offset" />
          </mxGeometry>
        </mxCell>
        <mxCell id="22G1ExoSwAQdDkdItCL2-3" value="" style="endArrow=classic;html=1;rounded=0;entryX=1;entryY=0.5;entryDx=0;entryDy=0;exitX=0.654;exitY=1.021;exitDx=0;exitDy=0;curved=1;exitPerimeter=0;fontSize=12;" parent="1" source="zQLfhOwh8VztQ8KEGqrh-1" target="aUZCRPm_g2SsC7SWf3nu-5" edge="1">
          <mxGeometry width="50" height="50" relative="1" as="geometry">
            <mxPoint x="571.1111111111111" y="969.4512195121952" as="sourcePoint" />
            <mxPoint x="936.8805555555557" y="1504.329268292683" as="targetPoint" />
            <Array as="points">
              <mxPoint x="660" y="1750" />
            </Array>
          </mxGeometry>
        </mxCell>
        <mxCell id="22G1ExoSwAQdDkdItCL2-5" value="" style="endArrow=classic;html=1;rounded=0;entryX=0;entryY=1;entryDx=0;entryDy=0;curved=1;fontSize=12;" parent="1" source="aUZCRPm_g2SsC7SWf3nu-5" target="aUZCRPm_g2SsC7SWf3nu-6" edge="1">
          <mxGeometry width="50" height="50" relative="1" as="geometry">
            <mxPoint x="571.1111111111111" y="1342.621951219512" as="sourcePoint" />
            <mxPoint x="634.3055555555554" y="1264.8780487804877" as="targetPoint" />
            <Array as="points">
              <mxPoint x="141.3888888888889" y="1840.1829268292686" />
            </Array>
          </mxGeometry>
        </mxCell>
        <mxCell id="22G1ExoSwAQdDkdItCL2-6" value="" style="endArrow=classic;html=1;rounded=0;exitX=0.301;exitY=0.006;exitDx=0;exitDy=0;curved=1;exitPerimeter=0;fontSize=12;" parent="1" source="aUZCRPm_g2SsC7SWf3nu-6" target="aUZCRPm_g2SsC7SWf3nu-7" edge="1">
          <mxGeometry width="50" height="50" relative="1" as="geometry">
            <mxPoint x="571.1111111111111" y="1342.621951219512" as="sourcePoint" />
            <mxPoint x="634.3055555555554" y="1264.8780487804877" as="targetPoint" />
            <Array as="points">
              <mxPoint x="-22.916666666666686" y="1031.6463414634147" />
            </Array>
          </mxGeometry>
        </mxCell>
        <mxCell id="22G1ExoSwAQdDkdItCL2-7" value="" style="endArrow=classic;html=1;rounded=0;exitX=1;exitY=0;exitDx=0;exitDy=0;entryX=0;entryY=0;entryDx=0;entryDy=0;curved=1;fontSize=12;" parent="1" source="aUZCRPm_g2SsC7SWf3nu-7" target="aUZCRPm_g2SsC7SWf3nu-3" edge="1">
          <mxGeometry width="50" height="50" relative="1" as="geometry">
            <mxPoint x="571.1111111111111" y="1016.0975609756097" as="sourcePoint" />
            <mxPoint x="634.3055555555554" y="938.3536585365853" as="targetPoint" />
            <Array as="points">
              <mxPoint x="710.1388888888889" y="876.1585365853659" />
            </Array>
          </mxGeometry>
        </mxCell>
        <mxCell id="22G1ExoSwAQdDkdItCL2-8" value="" style="endArrow=classic;html=1;rounded=0;exitX=0.365;exitY=-0.024;exitDx=0;exitDy=0;curved=1;exitPerimeter=0;fontSize=12;" parent="1" source="aUZCRPm_g2SsC7SWf3nu-7" target="aUZCRPm_g2SsC7SWf3nu-2" edge="1">
          <mxGeometry width="50" height="50" relative="1" as="geometry">
            <mxPoint x="432.08333333333326" y="1016.0975609756097" as="sourcePoint" />
            <mxPoint x="495.2777777777777" y="938.3536585365853" as="targetPoint" />
            <Array as="points">
              <mxPoint x="242.5" y="580.7317073170732" />
            </Array>
          </mxGeometry>
        </mxCell>
        <mxCell id="22G1ExoSwAQdDkdItCL2-9" value="" style="endArrow=classic;html=1;rounded=0;exitX=0;exitY=0.5;exitDx=0;exitDy=0;curved=1;fontSize=12;" parent="1" source="aUZCRPm_g2SsC7SWf3nu-6" target="aUZCRPm_g2SsC7SWf3nu-2" edge="1">
          <mxGeometry width="50" height="50" relative="1" as="geometry">
            <mxPoint x="432.08333333333326" y="1016.0975609756097" as="sourcePoint" />
            <mxPoint x="495.2777777777777" y="938.3536585365853" as="targetPoint" />
            <Array as="points">
              <mxPoint x="-440" y="67.6219512195122" />
            </Array>
          </mxGeometry>
        </mxCell>
        <mxCell id="22G1ExoSwAQdDkdItCL2-10" value="" style="endArrow=classic;html=1;rounded=0;exitX=1;exitY=1;exitDx=0;exitDy=0;curved=1;entryX=0.5;entryY=1;entryDx=0;entryDy=0;fontSize=12;" parent="1" source="aUZCRPm_g2SsC7SWf3nu-5" target="aUZCRPm_g2SsC7SWf3nu-2" edge="1">
          <mxGeometry width="50" height="50" relative="1" as="geometry">
            <mxPoint x="432.08333333333326" y="1233.7804878048782" as="sourcePoint" />
            <mxPoint x="394.16666666666663" y="1342.621951219512" as="targetPoint" />
            <Array as="points">
              <mxPoint x="910" y="1780" />
            </Array>
          </mxGeometry>
        </mxCell>
        <mxCell id="22G1ExoSwAQdDkdItCL2-12" value="" style="endArrow=classic;html=1;rounded=0;exitX=0.929;exitY=0.212;exitDx=0;exitDy=0;exitPerimeter=0;entryX=1;entryY=0.5;entryDx=0;entryDy=0;curved=1;fontSize=12;" parent="1" source="aUZCRPm_g2SsC7SWf3nu-2" target="aUZCRPm_g2SsC7SWf3nu-1" edge="1">
          <mxGeometry width="50" height="50" relative="1" as="geometry">
            <mxPoint x="432.08333333333326" y="922.8048780487807" as="sourcePoint" />
            <mxPoint x="495.2777777777777" y="845.0609756097563" as="targetPoint" />
            <Array as="points">
              <mxPoint x="1733.8888888888887" y="378.5975609756098" />
            </Array>
          </mxGeometry>
        </mxCell>
        <mxCell id="22G1ExoSwAQdDkdItCL2-18" value="!uart_en" style="edgeLabel;align=center;verticalAlign=middle;resizable=0;points=[];labelBackgroundColor=none;fontSize=12;container=0;" parent="22G1ExoSwAQdDkdItCL2-12" vertex="1" connectable="0">
          <mxGeometry x="0.4447" y="30" relative="1" as="geometry">
            <mxPoint x="32" y="-22" as="offset" />
          </mxGeometry>
        </mxCell>
        <mxCell id="22G1ExoSwAQdDkdItCL2-13" value="" style="endArrow=classic;html=1;rounded=0;exitX=1;exitY=0;exitDx=0;exitDy=0;entryX=0.262;entryY=0.94;entryDx=0;entryDy=0;entryPerimeter=0;curved=1;fontSize=12;" parent="1" source="aUZCRPm_g2SsC7SWf3nu-5" target="aUZCRPm_g2SsC7SWf3nu-3" edge="1">
          <mxGeometry width="50" height="50" relative="1" as="geometry">
            <mxPoint x="773.3333333333333" y="1420.3658536585365" as="sourcePoint" />
            <mxPoint x="836.5277777777778" y="1342.621951219512" as="targetPoint" />
            <Array as="points">
              <mxPoint x="350" y="1530" />
            </Array>
          </mxGeometry>
        </mxCell>
        <mxCell id="22G1ExoSwAQdDkdItCL2-14" value="" style="endArrow=classic;html=1;rounded=0;exitX=1.012;exitY=0.396;exitDx=0;exitDy=0;exitPerimeter=0;curved=1;fontSize=12;" parent="1" source="aUZCRPm_g2SsC7SWf3nu-6" target="aUZCRPm_g2SsC7SWf3nu-3" edge="1">
          <mxGeometry width="50" height="50" relative="1" as="geometry">
            <mxPoint x="773.3333333333333" y="1311.5243902439026" as="sourcePoint" />
            <mxPoint x="836.5277777777778" y="1233.7804878048782" as="targetPoint" />
            <Array as="points">
              <mxPoint x="318.33333333333326" y="1171.5853658536587" />
            </Array>
          </mxGeometry>
        </mxCell>
        <mxCell id="22G1ExoSwAQdDkdItCL2-16" value="" style="endArrow=classic;html=1;rounded=0;fontSize=12;" parent="1" target="aUZCRPm_g2SsC7SWf3nu-1" edge="1">
          <mxGeometry width="50" height="50" relative="1" as="geometry">
            <mxPoint x="470" y="-290" as="sourcePoint" />
            <mxPoint x="406.80555555555554" y="254.20731707317077" as="targetPoint" />
          </mxGeometry>
        </mxCell>
        <mxCell id="22G1ExoSwAQdDkdItCL2-17" value="reset" style="edgeLabel;html=1;align=center;verticalAlign=middle;resizable=0;points=[];fontSize=12;container=0;" parent="22G1ExoSwAQdDkdItCL2-16" vertex="1" connectable="0">
          <mxGeometry x="0.3756" y="-1" relative="1" as="geometry">
            <mxPoint y="-42" as="offset" />
          </mxGeometry>
        </mxCell>
        <mxCell id="nsiUKzhZOgeZwoa8xhAe-2" value="receive" style="ellipse;whiteSpace=wrap;html=1;fontSize=12;container=0;" parent="1" vertex="1">
          <mxGeometry x="1910.0011111111107" y="1209.9975609756098" width="151.66666666666666" height="124.39024390243902" as="geometry" />
        </mxCell>
        <mxCell id="nsiUKzhZOgeZwoa8xhAe-3" value="data_bit" style="ellipse;whiteSpace=wrap;html=1;fontSize=12;container=0;" parent="1" vertex="1">
          <mxGeometry x="1632.7777777777778" y="1855.731707317073" width="151.66666666666666" height="124.39024390243902" as="geometry" />
        </mxCell>
        <mxCell id="nsiUKzhZOgeZwoa8xhAe-4" value="parity" style="ellipse;whiteSpace=wrap;html=1;fontSize=12;container=0;" parent="1" vertex="1">
          <mxGeometry x="1439.9966666666664" y="1451.4609756097564" width="151.66666666666666" height="124.39024390243902" as="geometry" />
        </mxCell>
        <mxCell id="nsiUKzhZOgeZwoa8xhAe-5" value="stop_bit" style="ellipse;whiteSpace=wrap;html=1;fontSize=12;container=0;" parent="1" vertex="1">
          <mxGeometry x="1540.0011111111112" y="975.9985365853659" width="151.66666666666666" height="124.39024390243902" as="geometry" />
        </mxCell>
        <mxCell id="nsiUKzhZOgeZwoa8xhAe-6" value="start_bit_received" style="ellipse;whiteSpace=wrap;html=1;fontSize=12;container=0;" parent="1" vertex="1">
          <mxGeometry x="2100.4166666666665" y="1529.2073170731708" width="151.66666666666666" height="124.39024390243902" as="geometry" />
        </mxCell>
        <mxCell id="nsiUKzhZOgeZwoa8xhAe-7" value="" style="endArrow=classic;html=1;rounded=0;exitX=0.942;exitY=0.308;exitDx=0;exitDy=0;entryX=0.5;entryY=0;entryDx=0;entryDy=0;curved=1;exitPerimeter=0;fontSize=12;" parent="1" source="aUZCRPm_g2SsC7SWf3nu-2" target="nsiUKzhZOgeZwoa8xhAe-2" edge="1">
          <mxGeometry width="50" height="50" relative="1" as="geometry">
            <mxPoint x="1916.3438888888882" y="522.0195121951223" as="sourcePoint" />
            <mxPoint x="1910.833333333333" y="922.8048780487807" as="targetPoint" />
            <Array as="points">
              <mxPoint x="2290" y="565.1829268292682" />
            </Array>
          </mxGeometry>
        </mxCell>
        <mxCell id="nsiUKzhZOgeZwoa8xhAe-8" value="rx_en &#xa;  ~rx_fifo_fiful&#xa;~rx_bit&#xa;------------------&#xa;rx_baud_rate_reg_en&#xa;~rx_bit_count_reg_en&#xa;~rx_shift_reg_en&#xa;~status_register_en&#xa;~rx_fifo_wr_en" style="edgeLabel;align=center;verticalAlign=middle;resizable=0;points=[];labelBackgroundColor=none;fontSize=12;container=0;" parent="nsiUKzhZOgeZwoa8xhAe-7" vertex="1" connectable="0">
          <mxGeometry x="0.2494" y="-67" relative="1" as="geometry">
            <mxPoint x="-88" y="147" as="offset" />
          </mxGeometry>
        </mxCell>
        <mxCell id="nsiUKzhZOgeZwoa8xhAe-9" value="" style="endArrow=classic;html=1;rounded=0;entryX=0.745;entryY=0.05;entryDx=0;entryDy=0;exitX=1;exitY=0.5;exitDx=0;exitDy=0;curved=1;entryPerimeter=0;fontSize=12;" parent="1" source="nsiUKzhZOgeZwoa8xhAe-2" target="nsiUKzhZOgeZwoa8xhAe-6" edge="1">
          <mxGeometry width="50" height="50" relative="1" as="geometry">
            <mxPoint x="1847.6388888888887" y="1000.5487804878051" as="sourcePoint" />
            <mxPoint x="1910.833333333333" y="922.8048780487807" as="targetPoint" />
            <Array as="points">
              <mxPoint x="2226.8055555555557" y="1311.5243902439026" />
            </Array>
          </mxGeometry>
        </mxCell>
        <mxCell id="nsiUKzhZOgeZwoa8xhAe-10" value="&lt;span style=&quot;background-color: rgb(251, 251, 251);&quot;&gt;rx_baurd_rate_reg_enable&lt;/span&gt;&lt;br style=&quot;padding: 0px; margin: 0px; background-color: rgb(251, 251, 251);&quot;&gt;&lt;span style=&quot;background-color: rgb(251, 251, 251);&quot;&gt;-------------------------&lt;/span&gt;&lt;br style=&quot;padding: 0px; margin: 0px; background-color: rgb(251, 251, 251);&quot;&gt;&lt;span style=&quot;background-color: rgb(251, 251, 251);&quot;&gt;rx_baud_rate_reg_en&lt;/span&gt;&lt;br style=&quot;padding: 0px; margin: 0px; background-color: rgb(251, 251, 251);&quot;&gt;&lt;span style=&quot;background-color: rgb(251, 251, 251);&quot;&gt;~rx_bit_count_reg_en&lt;/span&gt;&lt;br style=&quot;padding: 0px; margin: 0px; background-color: rgb(251, 251, 251);&quot;&gt;&lt;span style=&quot;background-color: rgb(251, 251, 251);&quot;&gt;~rx_shift_reg_en&lt;/span&gt;&lt;br style=&quot;padding: 0px; margin: 0px; background-color: rgb(251, 251, 251);&quot;&gt;&lt;span style=&quot;background-color: rgb(251, 251, 251);&quot;&gt;~status_register_en&lt;br&gt;~rx_fifo_wr_en&lt;/span&gt;" style="edgeLabel;html=1;align=center;verticalAlign=middle;resizable=0;points=[];fontSize=12;container=0;" parent="nsiUKzhZOgeZwoa8xhAe-9" vertex="1" connectable="0">
          <mxGeometry x="0.076" y="-11" relative="1" as="geometry">
            <mxPoint x="57" y="-3" as="offset" />
          </mxGeometry>
        </mxCell>
        <mxCell id="nsiUKzhZOgeZwoa8xhAe-11" value="" style="endArrow=classic;html=1;rounded=0;exitX=0.385;exitY=0.984;exitDx=0;exitDy=0;exitPerimeter=0;entryX=0.984;entryY=0.633;entryDx=0;entryDy=0;curved=1;fontSize=12;entryPerimeter=0;" parent="1" source="nsiUKzhZOgeZwoa8xhAe-6" target="nsiUKzhZOgeZwoa8xhAe-3" edge="1">
          <mxGeometry width="50" height="50" relative="1" as="geometry">
            <mxPoint x="1847.6388888888887" y="1093.8414634146343" as="sourcePoint" />
            <mxPoint x="1910.833333333333" y="1016.0975609756097" as="targetPoint" />
            <Array as="points">
              <mxPoint x="2049.861111111111" y="1949.0243902439024" />
            </Array>
          </mxGeometry>
        </mxCell>
        <mxCell id="51ufyhEbTrBcLGHNjD88-1" value="&lt;span style=&quot;font-size: 12px; background-color: rgb(251, 251, 251);&quot;&gt;rx_baud_rate&lt;/span&gt;&lt;br style=&quot;padding: 0px; margin: 0px; font-size: 12px; background-color: rgb(251, 251, 251);&quot;&gt;&lt;span style=&quot;font-size: 12px; background-color: rgb(251, 251, 251);&quot;&gt;---------------------------&lt;/span&gt;&lt;br style=&quot;padding: 0px; margin: 0px; font-size: 12px; background-color: rgb(251, 251, 251);&quot;&gt;&lt;span style=&quot;font-size: 12px; background-color: rgb(251, 251, 251);&quot;&gt;rx_baud_rate_reg_en&lt;/span&gt;&lt;br style=&quot;padding: 0px; margin: 0px; font-size: 12px; background-color: rgb(251, 251, 251);&quot;&gt;&lt;span style=&quot;font-size: 12px; background-color: rgb(251, 251, 251);&quot;&gt;rx_bit_count_reg_en&lt;/span&gt;&lt;br style=&quot;padding: 0px; margin: 0px; font-size: 12px; background-color: rgb(251, 251, 251);&quot;&gt;&lt;span style=&quot;font-size: 12px; background-color: rgb(251, 251, 251);&quot;&gt;rx_shift_reg_en&lt;/span&gt;&lt;br style=&quot;padding: 0px; margin: 0px; font-size: 12px; background-color: rgb(251, 251, 251);&quot;&gt;&lt;span style=&quot;font-size: 12px; background-color: rgb(251, 251, 251);&quot;&gt;~status_register_en&lt;br&gt;~rx_fifo_wr_en&lt;/span&gt;" style="edgeLabel;html=1;align=center;verticalAlign=middle;resizable=0;points=[];" parent="nsiUKzhZOgeZwoa8xhAe-11" vertex="1" connectable="0">
          <mxGeometry x="-0.3528" y="-44" relative="1" as="geometry">
            <mxPoint x="66" y="63" as="offset" />
          </mxGeometry>
        </mxCell>
        <mxCell id="nsiUKzhZOgeZwoa8xhAe-12" value="" style="endArrow=classic;html=1;rounded=0;entryX=0;entryY=1;entryDx=0;entryDy=0;curved=1;fontSize=12;" parent="1" source="nsiUKzhZOgeZwoa8xhAe-3" target="nsiUKzhZOgeZwoa8xhAe-4" edge="1">
          <mxGeometry width="50" height="50" relative="1" as="geometry">
            <mxPoint x="1847.6388888888887" y="1373.719512195122" as="sourcePoint" />
            <mxPoint x="1910.833333333333" y="1295.9756097560976" as="targetPoint" />
            <Array as="points">
              <mxPoint x="1417.9166666666665" y="1871.2804878048782" />
            </Array>
          </mxGeometry>
        </mxCell>
        <mxCell id="6QUIF64mlT7Sfv4h3NJ3-4" value="rx_bit_count&#xa;rx_baud_rate&#xa;parity&#xa;---------------------------&#xa;rx_baud_rate_reg_en&#xa;~rx_bit_count_reg_en&#xa;~rx_shift_reg_en&#xa;~status_register_en&#xa;recieve_parity=rx&#xa;rx_fifo_wr_en" style="edgeLabel;align=center;verticalAlign=middle;resizable=0;points=[];labelBackgroundColor=none;" parent="nsiUKzhZOgeZwoa8xhAe-12" vertex="1" connectable="0">
          <mxGeometry x="0.3299" y="-24" relative="1" as="geometry">
            <mxPoint x="-51" y="22" as="offset" />
          </mxGeometry>
        </mxCell>
        <mxCell id="nsiUKzhZOgeZwoa8xhAe-13" value="" style="endArrow=classic;html=1;rounded=0;exitX=0.301;exitY=0.006;exitDx=0;exitDy=0;curved=1;exitPerimeter=0;fontSize=12;" parent="1" source="nsiUKzhZOgeZwoa8xhAe-4" target="nsiUKzhZOgeZwoa8xhAe-5" edge="1">
          <mxGeometry width="50" height="50" relative="1" as="geometry">
            <mxPoint x="1847.6388888888887" y="1373.719512195122" as="sourcePoint" />
            <mxPoint x="1910.833333333333" y="1295.9756097560976" as="targetPoint" />
            <Array as="points">
              <mxPoint x="1470" y="1200" />
            </Array>
          </mxGeometry>
        </mxCell>
        <mxCell id="6QUIF64mlT7Sfv4h3NJ3-8" value="&lt;span style=&quot;background-color: rgb(251, 251, 251);&quot;&gt;rx_baud_rate&lt;/span&gt;&lt;br style=&quot;padding: 0px; margin: 0px; background-color: rgb(251, 251, 251);&quot;&gt;&lt;span style=&quot;background-color: rgb(251, 251, 251);&quot;&gt;stop_bit&lt;/span&gt;&lt;br style=&quot;padding: 0px; margin: 0px; background-color: rgb(251, 251, 251);&quot;&gt;&lt;span style=&quot;background-color: rgb(251, 251, 251);&quot;&gt;---------------------------&lt;/span&gt;&lt;br style=&quot;padding: 0px; margin: 0px; background-color: rgb(251, 251, 251);&quot;&gt;&lt;span style=&quot;background-color: rgb(251, 251, 251);&quot;&gt;rx_baud_rate_reg_en&lt;/span&gt;&lt;br style=&quot;padding: 0px; margin: 0px; background-color: rgb(251, 251, 251);&quot;&gt;&lt;span style=&quot;background-color: rgb(251, 251, 251);&quot;&gt;~rx_bit_count_reg_en&lt;/span&gt;&lt;br style=&quot;padding: 0px; margin: 0px; background-color: rgb(251, 251, 251);&quot;&gt;&lt;span style=&quot;background-color: rgb(251, 251, 251);&quot;&gt;~rx_shift_reg_en&lt;/span&gt;&lt;br style=&quot;padding: 0px; margin: 0px; background-color: rgb(251, 251, 251);&quot;&gt;&lt;span style=&quot;background-color: rgb(251, 251, 251);&quot;&gt;~status_register_en&lt;/span&gt;&lt;br style=&quot;padding: 0px; margin: 0px; background-color: rgb(251, 251, 251);&quot;&gt;&lt;span style=&quot;background-color: rgb(251, 251, 251);&quot;&gt;stop_bit_error=rx_bit==1&lt;br&gt;&lt;span style=&quot;font-size: 12px;&quot;&gt;~rx_fifo_wr_en&lt;/span&gt;&lt;/span&gt;" style="edgeLabel;html=1;align=center;verticalAlign=middle;resizable=0;points=[];" parent="nsiUKzhZOgeZwoa8xhAe-13" vertex="1" connectable="0">
          <mxGeometry x="0.0004" y="-23" relative="1" as="geometry">
            <mxPoint x="-76" y="11" as="offset" />
          </mxGeometry>
        </mxCell>
        <mxCell id="nsiUKzhZOgeZwoa8xhAe-15" value="" style="endArrow=classic;html=1;rounded=0;exitX=0.365;exitY=-0.024;exitDx=0;exitDy=0;curved=1;exitPerimeter=0;entryX=1;entryY=0.5;entryDx=0;entryDy=0;fontSize=12;" parent="1" source="nsiUKzhZOgeZwoa8xhAe-5" target="aUZCRPm_g2SsC7SWf3nu-2" edge="1">
          <mxGeometry width="50" height="50" relative="1" as="geometry">
            <mxPoint x="1708.6111111111109" y="1047.1951219512196" as="sourcePoint" />
            <mxPoint x="1771.8055555555557" y="969.4512195121952" as="targetPoint" />
            <Array as="points">
              <mxPoint x="1519.0277777777776" y="611.829268292683" />
            </Array>
          </mxGeometry>
        </mxCell>
        <mxCell id="6QUIF64mlT7Sfv4h3NJ3-9" value="rx_baud_rate&#xa;---------------------------&#xa;rx_baud_rate_reg_en&#xa;~rx_bit_count_reg_en&#xa;~rx_shift_reg_en&#xa;~status_register_en&#xa;stop_bit_error=(rx_bit==1) || stop_bit_error&#xa;~rx_fifo_wr_en" style="edgeLabel;align=center;verticalAlign=middle;resizable=0;points=[];labelBackgroundColor=none;" parent="nsiUKzhZOgeZwoa8xhAe-15" vertex="1" connectable="0">
          <mxGeometry x="-0.4174" y="9" relative="1" as="geometry">
            <mxPoint x="-85" y="21" as="offset" />
          </mxGeometry>
        </mxCell>
        <mxCell id="nsiUKzhZOgeZwoa8xhAe-16" value="" style="endArrow=classic;html=1;rounded=0;exitX=0;exitY=1;exitDx=0;exitDy=0;curved=1;entryX=0.775;entryY=0.975;entryDx=0;entryDy=0;entryPerimeter=0;fontSize=12;" parent="1" source="nsiUKzhZOgeZwoa8xhAe-3" target="aUZCRPm_g2SsC7SWf3nu-2" edge="1">
          <mxGeometry width="50" height="50" relative="1" as="geometry">
            <mxPoint x="1708.6111111111109" y="1264.8780487804877" as="sourcePoint" />
            <mxPoint x="1670.6944444444443" y="1373.719512195122" as="targetPoint" />
            <Array as="points">
              <mxPoint x="1430" y="2050" />
              <mxPoint x="1120" y="1890" />
            </Array>
          </mxGeometry>
        </mxCell>
        <mxCell id="6QUIF64mlT7Sfv4h3NJ3-5" value="rx_bit_count&#xa;rx_baud_rate&#xa;~parity&#xa;~stop_bit&#xa;---------------------------&#xa;rx_baud_rate_reg_en&#xa;~rx_bit_count_reg_en&#xa;~rx_shift_reg_en&#xa;~status_register_en&#xa;stop_bit_error =rx_bit==1&#xa;rx_fifo_wr_en" style="edgeLabel;align=center;verticalAlign=middle;resizable=0;points=[];labelBackgroundColor=none;" parent="nsiUKzhZOgeZwoa8xhAe-16" vertex="1" connectable="0">
          <mxGeometry x="-0.5826" y="-1" relative="1" as="geometry">
            <mxPoint x="-85" y="31" as="offset" />
          </mxGeometry>
        </mxCell>
        <mxCell id="nsiUKzhZOgeZwoa8xhAe-17" value="" style="endArrow=classic;html=1;rounded=0;exitX=1;exitY=0;exitDx=0;exitDy=0;entryX=1;entryY=1;entryDx=0;entryDy=0;curved=1;fontSize=12;" parent="1" source="nsiUKzhZOgeZwoa8xhAe-3" target="nsiUKzhZOgeZwoa8xhAe-5" edge="1">
          <mxGeometry width="50" height="50" relative="1" as="geometry">
            <mxPoint x="2049.861111111111" y="1451.4634146341464" as="sourcePoint" />
            <mxPoint x="2113.0555555555557" y="1373.719512195122" as="targetPoint" />
            <Array as="points">
              <mxPoint x="1986.6666666666665" y="1544.7560975609758" />
            </Array>
          </mxGeometry>
        </mxCell>
        <mxCell id="6QUIF64mlT7Sfv4h3NJ3-3" value="rx_bit_count&#xa;rx_baud_rate&#xa;~parity&#xa;stop_bit&#xa;---------------------------&#xa;rx_baud_rate_reg_en&#xa;~rx_bit_count_reg_en&#xa;~rx_shift_reg_en&#xa;~status_register_en&#xa;stop_bit_error=rx_bit==1&#xa;rx_fifo_wr_en" style="edgeLabel;align=center;verticalAlign=middle;resizable=0;points=[];labelBackgroundColor=none;" parent="nsiUKzhZOgeZwoa8xhAe-17" vertex="1" connectable="0">
          <mxGeometry x="0.1745" y="46" relative="1" as="geometry">
            <mxPoint x="-85" y="-25" as="offset" />
          </mxGeometry>
        </mxCell>
        <mxCell id="zQLfhOwh8VztQ8KEGqrh-2" value="" style="endArrow=classic;html=1;rounded=0;entryX=0.593;entryY=0.028;entryDx=0;entryDy=0;exitX=0.654;exitY=1.021;exitDx=0;exitDy=0;curved=1;exitPerimeter=0;fontSize=12;entryPerimeter=0;" parent="1" source="aUZCRPm_g2SsC7SWf3nu-3" target="zQLfhOwh8VztQ8KEGqrh-1" edge="1">
          <mxGeometry width="50" height="50" relative="1" as="geometry">
            <mxPoint x="749" y="1317" as="sourcePoint" />
            <mxPoint x="508" y="1887" as="targetPoint" />
            <Array as="points" />
          </mxGeometry>
        </mxCell>
        <mxCell id="zQLfhOwh8VztQ8KEGqrh-1" value="start_bit" style="ellipse;whiteSpace=wrap;html=1;" parent="1" vertex="1">
          <mxGeometry x="600" y="1551.4" width="120" height="80" as="geometry" />
        </mxCell>
        <mxCell id="Gr2Q-Bwl7cku_yNLBRog-1" value="" style="endArrow=classic;html=1;rounded=0;exitX=0.923;exitY=0.223;exitDx=0;exitDy=0;exitPerimeter=0;entryX=0.723;entryY=0.971;entryDx=0;entryDy=0;entryPerimeter=0;curved=1;" parent="1" source="nsiUKzhZOgeZwoa8xhAe-6" target="nsiUKzhZOgeZwoa8xhAe-6" edge="1">
          <mxGeometry width="50" height="50" relative="1" as="geometry">
            <mxPoint x="2040" y="1580" as="sourcePoint" />
            <mxPoint x="2090" y="1530" as="targetPoint" />
            <Array as="points">
              <mxPoint x="2380" y="1630" />
            </Array>
          </mxGeometry>
        </mxCell>
        <mxCell id="Gr2Q-Bwl7cku_yNLBRog-2" value="&lt;span style=&quot;font-size: 12px; background-color: rgb(251, 251, 251);&quot;&gt;1&lt;br&gt;-------------------------&lt;/span&gt;&lt;br style=&quot;font-size: 12px; padding: 0px; margin: 0px; background-color: rgb(251, 251, 251);&quot;&gt;&lt;span style=&quot;font-size: 12px; background-color: rgb(251, 251, 251);&quot;&gt;rx_baud_rate_reg_en&lt;/span&gt;&lt;br style=&quot;font-size: 12px; padding: 0px; margin: 0px; background-color: rgb(251, 251, 251);&quot;&gt;&lt;span style=&quot;font-size: 12px; background-color: rgb(251, 251, 251);&quot;&gt;~rx_bit_count_reg_en&lt;/span&gt;&lt;br style=&quot;font-size: 12px; padding: 0px; margin: 0px; background-color: rgb(251, 251, 251);&quot;&gt;&lt;span style=&quot;font-size: 12px; background-color: rgb(251, 251, 251);&quot;&gt;~rx_shift_reg_en&lt;/span&gt;&lt;br style=&quot;font-size: 12px; padding: 0px; margin: 0px; background-color: rgb(251, 251, 251);&quot;&gt;&lt;span style=&quot;font-size: 12px; background-color: rgb(251, 251, 251);&quot;&gt;~status_register_en&lt;br&gt;~rx_fifo_wr_en&lt;/span&gt;" style="edgeLabel;html=1;align=center;verticalAlign=middle;resizable=0;points=[];" parent="Gr2Q-Bwl7cku_yNLBRog-1" vertex="1" connectable="0">
          <mxGeometry x="-0.4989" y="-21" relative="1" as="geometry">
            <mxPoint x="76" as="offset" />
          </mxGeometry>
        </mxCell>
        <mxCell id="Gr2Q-Bwl7cku_yNLBRog-3" value="" style="endArrow=classic;html=1;rounded=0;exitX=0.923;exitY=0.787;exitDx=0;exitDy=0;exitPerimeter=0;entryX=0.179;entryY=0.919;entryDx=0;entryDy=0;entryPerimeter=0;curved=1;" parent="1" source="nsiUKzhZOgeZwoa8xhAe-3" target="nsiUKzhZOgeZwoa8xhAe-3" edge="1">
          <mxGeometry width="50" height="50" relative="1" as="geometry">
            <mxPoint x="1630" y="1810" as="sourcePoint" />
            <mxPoint x="1680" y="1760" as="targetPoint" />
            <Array as="points">
              <mxPoint x="1730" y="2130" />
            </Array>
          </mxGeometry>
        </mxCell>
        <mxCell id="Gr2Q-Bwl7cku_yNLBRog-4" value="&lt;span style=&quot;font-size: 12px; background-color: rgb(251, 251, 251);&quot;&gt;rx_baud_rate&lt;/span&gt;&lt;br style=&quot;padding: 0px; margin: 0px; font-size: 12px; background-color: rgb(251, 251, 251);&quot;&gt;&lt;span style=&quot;font-size: 12px; background-color: rgb(251, 251, 251);&quot;&gt;---------------------------&lt;/span&gt;&lt;br style=&quot;padding: 0px; margin: 0px; font-size: 12px; background-color: rgb(251, 251, 251);&quot;&gt;&lt;span style=&quot;font-size: 12px; background-color: rgb(251, 251, 251);&quot;&gt;rx_baud_rate_reg_en&lt;/span&gt;&lt;br style=&quot;padding: 0px; margin: 0px; font-size: 12px; background-color: rgb(251, 251, 251);&quot;&gt;&lt;span style=&quot;font-size: 12px; background-color: rgb(251, 251, 251);&quot;&gt;rx_bit_count_reg_en&lt;/span&gt;&lt;br style=&quot;padding: 0px; margin: 0px; font-size: 12px; background-color: rgb(251, 251, 251);&quot;&gt;&lt;span style=&quot;font-size: 12px; background-color: rgb(251, 251, 251);&quot;&gt;rx_shift_reg_en&lt;/span&gt;&lt;br style=&quot;padding: 0px; margin: 0px; font-size: 12px; background-color: rgb(251, 251, 251);&quot;&gt;&lt;span style=&quot;font-size: 12px; background-color: rgb(251, 251, 251);&quot;&gt;~status_register_en&lt;br&gt;~rx_fifo_wr_en&lt;/span&gt;" style="edgeLabel;html=1;align=center;verticalAlign=middle;resizable=0;points=[];" parent="Gr2Q-Bwl7cku_yNLBRog-3" vertex="1" connectable="0">
          <mxGeometry x="0.4557" y="-25" relative="1" as="geometry">
            <mxPoint x="8" y="51" as="offset" />
          </mxGeometry>
        </mxCell>
        <mxCell id="6QUIF64mlT7Sfv4h3NJ3-1" value="" style="endArrow=classic;html=1;rounded=0;exitX=0.028;exitY=0.365;exitDx=0;exitDy=0;exitPerimeter=0;entryX=0.704;entryY=0.017;entryDx=0;entryDy=0;entryPerimeter=0;curved=1;" parent="1" source="nsiUKzhZOgeZwoa8xhAe-3" target="nsiUKzhZOgeZwoa8xhAe-3" edge="1">
          <mxGeometry width="50" height="50" relative="1" as="geometry">
            <mxPoint x="1540" y="1970" as="sourcePoint" />
            <mxPoint x="1590" y="1920" as="targetPoint" />
            <Array as="points">
              <mxPoint x="1640" y="1770" />
            </Array>
          </mxGeometry>
        </mxCell>
        <mxCell id="6QUIF64mlT7Sfv4h3NJ3-2" value="&lt;span style=&quot;font-size: 12px; background-color: rgb(251, 251, 251);&quot;&gt;1&lt;/span&gt;&lt;br style=&quot;padding: 0px; margin: 0px; font-size: 12px; background-color: rgb(251, 251, 251);&quot;&gt;&lt;span style=&quot;font-size: 12px; background-color: rgb(251, 251, 251);&quot;&gt;---------------------------&lt;/span&gt;&lt;br style=&quot;padding: 0px; margin: 0px; font-size: 12px; background-color: rgb(251, 251, 251);&quot;&gt;&lt;span style=&quot;font-size: 12px; background-color: rgb(251, 251, 251);&quot;&gt;rx_baud_rate_reg_en&lt;/span&gt;&lt;br style=&quot;padding: 0px; margin: 0px; font-size: 12px; background-color: rgb(251, 251, 251);&quot;&gt;&lt;span style=&quot;font-size: 12px; background-color: rgb(251, 251, 251);&quot;&gt;~rx_bit_count_reg_en&lt;/span&gt;&lt;br style=&quot;padding: 0px; margin: 0px; font-size: 12px; background-color: rgb(251, 251, 251);&quot;&gt;&lt;span style=&quot;font-size: 12px; background-color: rgb(251, 251, 251);&quot;&gt;~rx_shift_reg_en&lt;/span&gt;&lt;br style=&quot;padding: 0px; margin: 0px; font-size: 12px; background-color: rgb(251, 251, 251);&quot;&gt;&lt;span style=&quot;font-size: 12px; background-color: rgb(251, 251, 251);&quot;&gt;~status_register_en&lt;br&gt;~rx_fifo_wr_en&lt;/span&gt;" style="edgeLabel;html=1;align=center;verticalAlign=middle;resizable=0;points=[];" parent="6QUIF64mlT7Sfv4h3NJ3-1" vertex="1" connectable="0">
          <mxGeometry x="0.4264" y="-20" relative="1" as="geometry">
            <mxPoint x="-20" y="-53" as="offset" />
          </mxGeometry>
        </mxCell>
        <mxCell id="DIxc5aKvYafgqiYaG_-w-1" value="Text" style="text;html=1;align=center;verticalAlign=middle;resizable=0;points=[];autosize=1;strokeColor=none;fillColor=none;" vertex="1" parent="1">
          <mxGeometry x="1285" y="1728" width="50" height="30" as="geometry" />
        </mxCell>
      </root>
    </mxGraphModel>
  </diagram>
  <diagram id="iquxe9c9zaOKD2_IBxVe" name="Page-3">
    <mxGraphModel dx="880" dy="532" grid="1" gridSize="10" guides="1" tooltips="1" connect="1" arrows="1" fold="1" page="1" pageScale="1" pageWidth="850" pageHeight="1100" math="0" shadow="0">
      <root>
        <mxCell id="0" />
        <mxCell id="1" parent="0" />
        <mxCell id="WSwrS-_RPcIbI6AOxMhx-13" value="baud_rate_reg" style="rounded=0;whiteSpace=wrap;html=1;direction=south;fillColor=none;labelPosition=center;verticalLabelPosition=bottom;align=center;verticalAlign=top;" vertex="1" parent="1">
          <mxGeometry x="353.61" y="350" width="250" height="600" as="geometry" />
        </mxCell>
        <mxCell id="FSpcSiQwrwQc7FY7nAGG-1" value="receiver" style="ellipse;whiteSpace=wrap;html=1;" vertex="1" parent="1">
          <mxGeometry x="810" y="640" width="120" height="80" as="geometry" />
        </mxCell>
        <mxCell id="FSpcSiQwrwQc7FY7nAGG-2" value="data_receive" style="ellipse;whiteSpace=wrap;html=1;" vertex="1" parent="1">
          <mxGeometry x="1200" y="480" width="120" height="80" as="geometry" />
        </mxCell>
        <mxCell id="FSpcSiQwrwQc7FY7nAGG-3" value="start_bit_receive" style="ellipse;whiteSpace=wrap;html=1;" vertex="1" parent="1">
          <mxGeometry x="1050" y="640" width="120" height="80" as="geometry" />
        </mxCell>
        <mxCell id="FSpcSiQwrwQc7FY7nAGG-4" value="parity_bit_receive" style="ellipse;whiteSpace=wrap;html=1;" vertex="1" parent="1">
          <mxGeometry x="1050" y="310" width="120" height="80" as="geometry" />
        </mxCell>
        <mxCell id="FSpcSiQwrwQc7FY7nAGG-5" value="stop_bit_reveive" style="ellipse;whiteSpace=wrap;html=1;" vertex="1" parent="1">
          <mxGeometry x="820" y="300" width="120" height="80" as="geometry" />
        </mxCell>
        <mxCell id="WSwrS-_RPcIbI6AOxMhx-1" value="Transmiter&lt;br&gt;baud_rate&lt;br&gt;reg" style="rounded=0;whiteSpace=wrap;html=1;direction=south;container=0;" vertex="1" parent="1">
          <mxGeometry x="447.453560371517" y="482.5454545454545" width="62.30650154798762" height="149.0909090909091" as="geometry" />
        </mxCell>
        <mxCell id="WSwrS-_RPcIbI6AOxMhx-2" value="" style="triangle;whiteSpace=wrap;html=1;container=0;" vertex="1" parent="1">
          <mxGeometry x="447.453560371517" y="601.8181818181818" width="12.461300309597524" height="29.81818181818182" as="geometry" />
        </mxCell>
        <mxCell id="WSwrS-_RPcIbI6AOxMhx-3" value="" style="endArrow=classic;html=1;rounded=0;strokeWidth=1;startSize=6;opacity=70;jumpSize=1;strokeColor=default;shadow=1;exitX=0.5;exitY=0;exitDx=0;exitDy=0;" edge="1" parent="1" source="WSwrS-_RPcIbI6AOxMhx-11" target="WSwrS-_RPcIbI6AOxMhx-4">
          <mxGeometry width="50" height="50" relative="1" as="geometry">
            <mxPoint x="590.7585139318885" y="482.5454545454545" as="sourcePoint" />
            <mxPoint x="397.60835913312695" y="512.3636363636364" as="targetPoint" />
            <Array as="points">
              <mxPoint x="549.6362229102167" y="452.7272727272727" />
              <mxPoint x="410.06965944272446" y="452.7272727272727" />
            </Array>
          </mxGeometry>
        </mxCell>
        <mxCell id="WSwrS-_RPcIbI6AOxMhx-4" value="" style="ellipse;whiteSpace=wrap;html=1;container=0;" vertex="1" parent="1">
          <mxGeometry x="397.60835913312695" y="497.45454545454544" width="24.922600619195048" height="29.81818181818182" as="geometry" />
        </mxCell>
        <mxCell id="WSwrS-_RPcIbI6AOxMhx-5" value="+" style="text;html=1;align=center;verticalAlign=middle;whiteSpace=wrap;rounded=0;container=0;" vertex="1" parent="1">
          <mxGeometry x="403.8390092879257" y="501.18181818181813" width="12.461300309597524" height="22.363636363636363" as="geometry" />
        </mxCell>
        <mxCell id="WSwrS-_RPcIbI6AOxMhx-6" value="" style="endArrow=classic;html=1;rounded=0;strokeWidth=1;startSize=6;opacity=70;jumpSize=1;strokeColor=default;shadow=1;entryX=0.5;entryY=1;entryDx=0;entryDy=0;" edge="1" parent="1" target="WSwrS-_RPcIbI6AOxMhx-4">
          <mxGeometry width="50" height="50" relative="1" as="geometry">
            <mxPoint x="410.06965944272446" y="557.090909090909" as="sourcePoint" />
            <mxPoint x="385.14705882352945" y="467.6363636363636" as="targetPoint" />
          </mxGeometry>
        </mxCell>
        <mxCell id="WSwrS-_RPcIbI6AOxMhx-7" value="1" style="text;html=1;align=center;verticalAlign=middle;whiteSpace=wrap;rounded=0;container=0;" vertex="1" parent="1">
          <mxGeometry x="397.60835913312695" y="564.5454545454545" width="24.922600619195048" height="14.90909090909091" as="geometry" />
        </mxCell>
        <mxCell id="WSwrS-_RPcIbI6AOxMhx-8" value="" style="endArrow=classic;html=1;rounded=0;strokeWidth=1;startSize=6;opacity=70;jumpSize=1;strokeColor=default;shadow=1;" edge="1" parent="1">
          <mxGeometry width="50" height="50" relative="1" as="geometry">
            <mxPoint x="422.530959752322" y="511.61818181818177" as="sourcePoint" />
            <mxPoint x="447.453560371517" y="512.3636363636364" as="targetPoint" />
          </mxGeometry>
        </mxCell>
        <mxCell id="WSwrS-_RPcIbI6AOxMhx-9" value="" style="endArrow=classic;html=1;rounded=0;strokeWidth=1;startSize=6;opacity=70;jumpSize=1;strokeColor=default;shadow=1;entryX=0.5;entryY=1;entryDx=0;entryDy=0;exitX=0.75;exitY=0;exitDx=0;exitDy=0;" edge="1" parent="1" source="WSwrS-_RPcIbI6AOxMhx-1" target="WSwrS-_RPcIbI6AOxMhx-11">
          <mxGeometry width="50" height="50" relative="1" as="geometry">
            <mxPoint x="522.2213622291022" y="586.9090909090909" as="sourcePoint" />
            <mxPoint x="347.7631578947369" y="594.3636363636364" as="targetPoint" />
            <Array as="points">
              <mxPoint x="547.1439628482972" y="594.3636363636364" />
            </Array>
          </mxGeometry>
        </mxCell>
        <mxCell id="WSwrS-_RPcIbI6AOxMhx-10" value="" style="endArrow=classic;html=1;rounded=0;strokeWidth=1;startSize=6;opacity=70;jumpSize=1;strokeColor=default;shadow=1;entryX=0;entryY=0.5;entryDx=0;entryDy=0;" edge="1" parent="1" target="WSwrS-_RPcIbI6AOxMhx-11">
          <mxGeometry width="50" height="50" relative="1" as="geometry">
            <mxPoint x="509.76006191950466" y="518.3272727272727" as="sourcePoint" />
            <mxPoint x="534.6826625386997" y="518.3272727272727" as="targetPoint" />
          </mxGeometry>
        </mxCell>
        <mxCell id="WSwrS-_RPcIbI6AOxMhx-11" value="" style="ellipse;whiteSpace=wrap;html=1;container=0;" vertex="1" parent="1">
          <mxGeometry x="539.6671826625387" y="497.45454545454544" width="19.93808049535604" height="44.72727272727273" as="geometry" />
        </mxCell>
        <mxCell id="WSwrS-_RPcIbI6AOxMhx-12" value="=" style="text;html=1;align=center;verticalAlign=middle;whiteSpace=wrap;rounded=0;container=0;" vertex="1" parent="1">
          <mxGeometry x="542.1594427244582" y="512.3636363636364" width="17.445820433436534" height="14.90909090909091" as="geometry" />
        </mxCell>
        <mxCell id="WSwrS-_RPcIbI6AOxMhx-14" value="receiver&lt;br&gt;baud_rate&lt;br&gt;reg" style="rounded=0;whiteSpace=wrap;html=1;direction=south;container=0;" vertex="1" parent="1">
          <mxGeometry x="447.453560371517" y="749.8154545454545" width="62.30650154798762" height="149.0909090909091" as="geometry" />
        </mxCell>
        <mxCell id="WSwrS-_RPcIbI6AOxMhx-15" value="" style="triangle;whiteSpace=wrap;html=1;container=0;" vertex="1" parent="1">
          <mxGeometry x="447.453560371517" y="869.0881818181817" width="12.461300309597524" height="29.81818181818182" as="geometry" />
        </mxCell>
        <mxCell id="WSwrS-_RPcIbI6AOxMhx-16" value="" style="endArrow=classic;html=1;rounded=0;strokeWidth=1;startSize=6;opacity=70;jumpSize=1;strokeColor=default;shadow=1;exitX=0.5;exitY=0;exitDx=0;exitDy=0;" edge="1" parent="1" source="WSwrS-_RPcIbI6AOxMhx-24" target="WSwrS-_RPcIbI6AOxMhx-17">
          <mxGeometry width="50" height="50" relative="1" as="geometry">
            <mxPoint x="590.7585139318885" y="749.8154545454545" as="sourcePoint" />
            <mxPoint x="397.60835913312695" y="779.6336363636364" as="targetPoint" />
            <Array as="points">
              <mxPoint x="549.6362229102167" y="719.9972727272727" />
              <mxPoint x="410.06965944272446" y="719.9972727272727" />
            </Array>
          </mxGeometry>
        </mxCell>
        <mxCell id="WSwrS-_RPcIbI6AOxMhx-17" value="" style="ellipse;whiteSpace=wrap;html=1;container=0;" vertex="1" parent="1">
          <mxGeometry x="397.60835913312695" y="764.7245454545455" width="24.922600619195048" height="29.81818181818182" as="geometry" />
        </mxCell>
        <mxCell id="WSwrS-_RPcIbI6AOxMhx-18" value="+" style="text;html=1;align=center;verticalAlign=middle;whiteSpace=wrap;rounded=0;container=0;" vertex="1" parent="1">
          <mxGeometry x="403.8390092879257" y="768.4518181818181" width="12.461300309597524" height="22.363636363636363" as="geometry" />
        </mxCell>
        <mxCell id="WSwrS-_RPcIbI6AOxMhx-19" value="" style="endArrow=classic;html=1;rounded=0;strokeWidth=1;startSize=6;opacity=70;jumpSize=1;strokeColor=default;shadow=1;entryX=0.5;entryY=1;entryDx=0;entryDy=0;" edge="1" parent="1" target="WSwrS-_RPcIbI6AOxMhx-17">
          <mxGeometry width="50" height="50" relative="1" as="geometry">
            <mxPoint x="410.06965944272446" y="824.360909090909" as="sourcePoint" />
            <mxPoint x="385.14705882352945" y="734.9063636363636" as="targetPoint" />
          </mxGeometry>
        </mxCell>
        <mxCell id="WSwrS-_RPcIbI6AOxMhx-20" value="1" style="text;html=1;align=center;verticalAlign=middle;whiteSpace=wrap;rounded=0;container=0;" vertex="1" parent="1">
          <mxGeometry x="397.60835913312695" y="831.8154545454545" width="24.922600619195048" height="14.90909090909091" as="geometry" />
        </mxCell>
        <mxCell id="WSwrS-_RPcIbI6AOxMhx-21" value="" style="endArrow=classic;html=1;rounded=0;strokeWidth=1;startSize=6;opacity=70;jumpSize=1;strokeColor=default;shadow=1;" edge="1" parent="1">
          <mxGeometry width="50" height="50" relative="1" as="geometry">
            <mxPoint x="422.530959752322" y="778.8881818181817" as="sourcePoint" />
            <mxPoint x="447.453560371517" y="779.6336363636364" as="targetPoint" />
          </mxGeometry>
        </mxCell>
        <mxCell id="WSwrS-_RPcIbI6AOxMhx-22" value="" style="endArrow=classic;html=1;rounded=0;strokeWidth=1;startSize=6;opacity=70;jumpSize=1;strokeColor=default;shadow=1;entryX=0.5;entryY=1;entryDx=0;entryDy=0;exitX=0.75;exitY=0;exitDx=0;exitDy=0;" edge="1" parent="1" source="WSwrS-_RPcIbI6AOxMhx-14" target="WSwrS-_RPcIbI6AOxMhx-24">
          <mxGeometry width="50" height="50" relative="1" as="geometry">
            <mxPoint x="522.2213622291022" y="854.1790909090909" as="sourcePoint" />
            <mxPoint x="347.7631578947369" y="861.6336363636364" as="targetPoint" />
            <Array as="points">
              <mxPoint x="547.1439628482972" y="861.6336363636364" />
            </Array>
          </mxGeometry>
        </mxCell>
        <mxCell id="WSwrS-_RPcIbI6AOxMhx-23" value="" style="endArrow=classic;html=1;rounded=0;strokeWidth=1;startSize=6;opacity=70;jumpSize=1;strokeColor=default;shadow=1;entryX=0;entryY=0.5;entryDx=0;entryDy=0;" edge="1" parent="1" target="WSwrS-_RPcIbI6AOxMhx-24">
          <mxGeometry width="50" height="50" relative="1" as="geometry">
            <mxPoint x="509.76006191950466" y="785.5972727272726" as="sourcePoint" />
            <mxPoint x="534.6826625386997" y="785.5972727272726" as="targetPoint" />
          </mxGeometry>
        </mxCell>
        <mxCell id="WSwrS-_RPcIbI6AOxMhx-24" value="" style="ellipse;whiteSpace=wrap;html=1;container=0;" vertex="1" parent="1">
          <mxGeometry x="539.6671826625387" y="764.7245454545455" width="19.93808049535604" height="44.72727272727273" as="geometry" />
        </mxCell>
        <mxCell id="WSwrS-_RPcIbI6AOxMhx-25" value="=" style="text;html=1;align=center;verticalAlign=middle;whiteSpace=wrap;rounded=0;container=0;" vertex="1" parent="1">
          <mxGeometry x="542.1594427244582" y="779.6336363636364" width="17.445820433436534" height="14.90909090909091" as="geometry" />
        </mxCell>
        <mxCell id="WSwrS-_RPcIbI6AOxMhx-26" value="" style="endArrow=classic;html=1;rounded=0;entryX=0.654;entryY=0.991;entryDx=0;entryDy=0;entryPerimeter=0;" edge="1" parent="1" target="WSwrS-_RPcIbI6AOxMhx-1">
          <mxGeometry width="50" height="50" relative="1" as="geometry">
            <mxPoint x="200" y="580" as="sourcePoint" />
            <mxPoint x="600" y="600" as="targetPoint" />
          </mxGeometry>
        </mxCell>
        <mxCell id="WSwrS-_RPcIbI6AOxMhx-28" value="baud_rate" style="edgeLabel;html=1;align=center;verticalAlign=middle;resizable=0;points=[];" vertex="1" connectable="0" parent="WSwrS-_RPcIbI6AOxMhx-26">
          <mxGeometry x="-0.3629" relative="1" as="geometry">
            <mxPoint y="-8" as="offset" />
          </mxGeometry>
        </mxCell>
        <mxCell id="WSwrS-_RPcIbI6AOxMhx-27" value="" style="endArrow=classic;html=1;rounded=0;entryX=0.679;entryY=1.007;entryDx=0;entryDy=0;entryPerimeter=0;startArrow=oval;startFill=1;" edge="1" parent="1" target="WSwrS-_RPcIbI6AOxMhx-14">
          <mxGeometry width="50" height="50" relative="1" as="geometry">
            <mxPoint x="380" y="580" as="sourcePoint" />
            <mxPoint x="600" y="650" as="targetPoint" />
            <Array as="points">
              <mxPoint x="380" y="850" />
            </Array>
          </mxGeometry>
        </mxCell>
        <mxCell id="WSwrS-_RPcIbI6AOxMhx-29" value="" style="endArrow=classic;html=1;rounded=0;entryX=0.795;entryY=1.023;entryDx=0;entryDy=0;entryPerimeter=0;" edge="1" parent="1" target="WSwrS-_RPcIbI6AOxMhx-1">
          <mxGeometry width="50" height="50" relative="1" as="geometry">
            <mxPoint x="200" y="601" as="sourcePoint" />
            <mxPoint x="600" y="650" as="targetPoint" />
          </mxGeometry>
        </mxCell>
        <mxCell id="WSwrS-_RPcIbI6AOxMhx-30" value="tx_baud_rate_reg_en" style="edgeLabel;html=1;align=center;verticalAlign=middle;resizable=0;points=[];" vertex="1" connectable="0" parent="WSwrS-_RPcIbI6AOxMhx-29">
          <mxGeometry x="-0.3171" y="-1" relative="1" as="geometry">
            <mxPoint y="-12" as="offset" />
          </mxGeometry>
        </mxCell>
        <mxCell id="WSwrS-_RPcIbI6AOxMhx-31" value="" style="endArrow=classic;html=1;rounded=0;entryX=0.866;entryY=1.023;entryDx=0;entryDy=0;entryPerimeter=0;" edge="1" parent="1" target="WSwrS-_RPcIbI6AOxMhx-14">
          <mxGeometry width="50" height="50" relative="1" as="geometry">
            <mxPoint x="200" y="880" as="sourcePoint" />
            <mxPoint x="600" y="650" as="targetPoint" />
          </mxGeometry>
        </mxCell>
        <mxCell id="WSwrS-_RPcIbI6AOxMhx-32" value="rx_baud_rate_reg_en" style="edgeLabel;html=1;align=center;verticalAlign=middle;resizable=0;points=[];" vertex="1" connectable="0" parent="WSwrS-_RPcIbI6AOxMhx-31">
          <mxGeometry x="-0.3577" y="2" relative="1" as="geometry">
            <mxPoint y="-9" as="offset" />
          </mxGeometry>
        </mxCell>
        <mxCell id="L_LIiC0g01T-dHRuy7tp-1" value="" style="endArrow=classic;html=1;rounded=0;exitX=1;exitY=0.5;exitDx=0;exitDy=0;" edge="1" parent="1" source="WSwrS-_RPcIbI6AOxMhx-11">
          <mxGeometry width="50" height="50" relative="1" as="geometry">
            <mxPoint x="550" y="700" as="sourcePoint" />
            <mxPoint x="760" y="520" as="targetPoint" />
          </mxGeometry>
        </mxCell>
        <mxCell id="L_LIiC0g01T-dHRuy7tp-2" value="tx_baud_rate" style="edgeLabel;html=1;align=center;verticalAlign=middle;resizable=0;points=[];" vertex="1" connectable="0" parent="L_LIiC0g01T-dHRuy7tp-1">
          <mxGeometry x="-0.0679" relative="1" as="geometry">
            <mxPoint y="-8" as="offset" />
          </mxGeometry>
        </mxCell>
        <mxCell id="L_LIiC0g01T-dHRuy7tp-3" value="" style="endArrow=classic;html=1;rounded=0;exitX=1;exitY=0.5;exitDx=0;exitDy=0;" edge="1" parent="1" source="WSwrS-_RPcIbI6AOxMhx-25">
          <mxGeometry width="50" height="50" relative="1" as="geometry">
            <mxPoint x="550" y="700" as="sourcePoint" />
            <mxPoint x="760" y="787" as="targetPoint" />
          </mxGeometry>
        </mxCell>
        <mxCell id="L_LIiC0g01T-dHRuy7tp-4" value="rx_baud_rate" style="edgeLabel;align=center;verticalAlign=middle;resizable=0;points=[];labelBackgroundColor=none;" vertex="1" connectable="0" parent="L_LIiC0g01T-dHRuy7tp-3">
          <mxGeometry x="-0.018" y="-2" relative="1" as="geometry">
            <mxPoint y="-9" as="offset" />
          </mxGeometry>
        </mxCell>
      </root>
    </mxGraphModel>
  </diagram>
  <diagram id="06VibKZf6t4BKEMGLTHo" name="Page-4">
    <mxGraphModel dx="880" dy="532" grid="1" gridSize="10" guides="1" tooltips="1" connect="1" arrows="1" fold="1" page="1" pageScale="1" pageWidth="850" pageHeight="1100" math="0" shadow="0">
      <root>
        <mxCell id="0" />
        <mxCell id="1" parent="0" />
        <mxCell id="eahyqfVtHaJqRNcFQ3CQ-1" value="bit_count_reg" style="rounded=0;whiteSpace=wrap;html=1;direction=south;fillColor=none;verticalAlign=top;labelPosition=center;verticalLabelPosition=bottom;align=center;" vertex="1" parent="1">
          <mxGeometry x="353.61" y="350" width="250" height="600" as="geometry" />
        </mxCell>
        <mxCell id="eahyqfVtHaJqRNcFQ3CQ-2" value="transmiter&lt;br&gt;bit_count&lt;br&gt;reg" style="rounded=0;whiteSpace=wrap;html=1;direction=south;container=0;" vertex="1" parent="1">
          <mxGeometry x="447.453560371517" y="482.5454545454545" width="62.30650154798762" height="149.0909090909091" as="geometry" />
        </mxCell>
        <mxCell id="eahyqfVtHaJqRNcFQ3CQ-3" value="" style="triangle;whiteSpace=wrap;html=1;container=0;" vertex="1" parent="1">
          <mxGeometry x="447.453560371517" y="601.8181818181818" width="12.461300309597524" height="29.81818181818182" as="geometry" />
        </mxCell>
        <mxCell id="eahyqfVtHaJqRNcFQ3CQ-4" value="" style="endArrow=classic;html=1;rounded=0;strokeWidth=1;startSize=6;opacity=70;jumpSize=1;strokeColor=default;shadow=1;exitX=0.5;exitY=0;exitDx=0;exitDy=0;" edge="1" parent="1" source="eahyqfVtHaJqRNcFQ3CQ-12" target="eahyqfVtHaJqRNcFQ3CQ-5">
          <mxGeometry width="50" height="50" relative="1" as="geometry">
            <mxPoint x="590.7585139318885" y="482.5454545454545" as="sourcePoint" />
            <mxPoint x="397.60835913312695" y="512.3636363636364" as="targetPoint" />
            <Array as="points">
              <mxPoint x="549.6362229102167" y="452.7272727272727" />
              <mxPoint x="410.06965944272446" y="452.7272727272727" />
            </Array>
          </mxGeometry>
        </mxCell>
        <mxCell id="eahyqfVtHaJqRNcFQ3CQ-5" value="" style="ellipse;whiteSpace=wrap;html=1;container=0;" vertex="1" parent="1">
          <mxGeometry x="397.60835913312695" y="497.45454545454544" width="24.922600619195048" height="29.81818181818182" as="geometry" />
        </mxCell>
        <mxCell id="eahyqfVtHaJqRNcFQ3CQ-6" value="+" style="text;html=1;align=center;verticalAlign=middle;whiteSpace=wrap;rounded=0;container=0;" vertex="1" parent="1">
          <mxGeometry x="403.8390092879257" y="501.18181818181813" width="12.461300309597524" height="22.363636363636363" as="geometry" />
        </mxCell>
        <mxCell id="eahyqfVtHaJqRNcFQ3CQ-7" value="" style="endArrow=classic;html=1;rounded=0;strokeWidth=1;startSize=6;opacity=70;jumpSize=1;strokeColor=default;shadow=1;entryX=0.5;entryY=1;entryDx=0;entryDy=0;" edge="1" parent="1" target="eahyqfVtHaJqRNcFQ3CQ-5">
          <mxGeometry width="50" height="50" relative="1" as="geometry">
            <mxPoint x="410.06965944272446" y="557.090909090909" as="sourcePoint" />
            <mxPoint x="385.14705882352945" y="467.6363636363636" as="targetPoint" />
          </mxGeometry>
        </mxCell>
        <mxCell id="eahyqfVtHaJqRNcFQ3CQ-8" value="1" style="text;html=1;align=center;verticalAlign=middle;whiteSpace=wrap;rounded=0;container=0;" vertex="1" parent="1">
          <mxGeometry x="397.60835913312695" y="564.5454545454545" width="24.922600619195048" height="14.90909090909091" as="geometry" />
        </mxCell>
        <mxCell id="eahyqfVtHaJqRNcFQ3CQ-9" value="" style="endArrow=classic;html=1;rounded=0;strokeWidth=1;startSize=6;opacity=70;jumpSize=1;strokeColor=default;shadow=1;" edge="1" parent="1">
          <mxGeometry width="50" height="50" relative="1" as="geometry">
            <mxPoint x="422.530959752322" y="511.61818181818177" as="sourcePoint" />
            <mxPoint x="447.453560371517" y="512.3636363636364" as="targetPoint" />
          </mxGeometry>
        </mxCell>
        <mxCell id="eahyqfVtHaJqRNcFQ3CQ-10" value="" style="endArrow=classic;html=1;rounded=0;strokeWidth=1;startSize=6;opacity=70;jumpSize=1;strokeColor=default;shadow=1;entryX=0.5;entryY=1;entryDx=0;entryDy=0;exitX=0.75;exitY=0;exitDx=0;exitDy=0;" edge="1" parent="1" source="eahyqfVtHaJqRNcFQ3CQ-2" target="eahyqfVtHaJqRNcFQ3CQ-12">
          <mxGeometry width="50" height="50" relative="1" as="geometry">
            <mxPoint x="522.2213622291022" y="586.9090909090909" as="sourcePoint" />
            <mxPoint x="347.7631578947369" y="594.3636363636364" as="targetPoint" />
            <Array as="points">
              <mxPoint x="547.1439628482972" y="594.3636363636364" />
            </Array>
          </mxGeometry>
        </mxCell>
        <mxCell id="eahyqfVtHaJqRNcFQ3CQ-11" value="" style="endArrow=classic;html=1;rounded=0;strokeWidth=1;startSize=6;opacity=70;jumpSize=1;strokeColor=default;shadow=1;entryX=0;entryY=0.5;entryDx=0;entryDy=0;" edge="1" parent="1" target="eahyqfVtHaJqRNcFQ3CQ-12">
          <mxGeometry width="50" height="50" relative="1" as="geometry">
            <mxPoint x="509.76006191950466" y="518.3272727272727" as="sourcePoint" />
            <mxPoint x="534.6826625386997" y="518.3272727272727" as="targetPoint" />
          </mxGeometry>
        </mxCell>
        <mxCell id="eahyqfVtHaJqRNcFQ3CQ-12" value="" style="ellipse;whiteSpace=wrap;html=1;container=0;" vertex="1" parent="1">
          <mxGeometry x="539.6671826625387" y="497.45454545454544" width="19.93808049535604" height="44.72727272727273" as="geometry" />
        </mxCell>
        <mxCell id="eahyqfVtHaJqRNcFQ3CQ-13" value="=" style="text;html=1;align=center;verticalAlign=middle;whiteSpace=wrap;rounded=0;container=0;" vertex="1" parent="1">
          <mxGeometry x="542.1594427244582" y="512.3636363636364" width="17.445820433436534" height="14.90909090909091" as="geometry" />
        </mxCell>
        <mxCell id="eahyqfVtHaJqRNcFQ3CQ-14" value="receiver&lt;br&gt;baud_rate&lt;br&gt;reg" style="rounded=0;whiteSpace=wrap;html=1;direction=south;container=0;" vertex="1" parent="1">
          <mxGeometry x="447.453560371517" y="749.8154545454545" width="62.30650154798762" height="149.0909090909091" as="geometry" />
        </mxCell>
        <mxCell id="eahyqfVtHaJqRNcFQ3CQ-15" value="" style="triangle;whiteSpace=wrap;html=1;container=0;" vertex="1" parent="1">
          <mxGeometry x="447.453560371517" y="869.0881818181817" width="12.461300309597524" height="29.81818181818182" as="geometry" />
        </mxCell>
        <mxCell id="eahyqfVtHaJqRNcFQ3CQ-16" value="" style="endArrow=classic;html=1;rounded=0;strokeWidth=1;startSize=6;opacity=70;jumpSize=1;strokeColor=default;shadow=1;exitX=0.5;exitY=0;exitDx=0;exitDy=0;" edge="1" parent="1" source="eahyqfVtHaJqRNcFQ3CQ-24" target="eahyqfVtHaJqRNcFQ3CQ-17">
          <mxGeometry width="50" height="50" relative="1" as="geometry">
            <mxPoint x="590.7585139318885" y="749.8154545454545" as="sourcePoint" />
            <mxPoint x="397.60835913312695" y="779.6336363636364" as="targetPoint" />
            <Array as="points">
              <mxPoint x="549.6362229102167" y="719.9972727272727" />
              <mxPoint x="410.06965944272446" y="719.9972727272727" />
            </Array>
          </mxGeometry>
        </mxCell>
        <mxCell id="eahyqfVtHaJqRNcFQ3CQ-17" value="" style="ellipse;whiteSpace=wrap;html=1;container=0;" vertex="1" parent="1">
          <mxGeometry x="397.60835913312695" y="764.7245454545455" width="24.922600619195048" height="29.81818181818182" as="geometry" />
        </mxCell>
        <mxCell id="eahyqfVtHaJqRNcFQ3CQ-18" value="+" style="text;html=1;align=center;verticalAlign=middle;whiteSpace=wrap;rounded=0;container=0;" vertex="1" parent="1">
          <mxGeometry x="403.8390092879257" y="768.4518181818181" width="12.461300309597524" height="22.363636363636363" as="geometry" />
        </mxCell>
        <mxCell id="eahyqfVtHaJqRNcFQ3CQ-19" value="" style="endArrow=classic;html=1;rounded=0;strokeWidth=1;startSize=6;opacity=70;jumpSize=1;strokeColor=default;shadow=1;entryX=0.5;entryY=1;entryDx=0;entryDy=0;" edge="1" parent="1" target="eahyqfVtHaJqRNcFQ3CQ-17">
          <mxGeometry width="50" height="50" relative="1" as="geometry">
            <mxPoint x="410.06965944272446" y="824.360909090909" as="sourcePoint" />
            <mxPoint x="385.14705882352945" y="734.9063636363636" as="targetPoint" />
          </mxGeometry>
        </mxCell>
        <mxCell id="eahyqfVtHaJqRNcFQ3CQ-20" value="1" style="text;html=1;align=center;verticalAlign=middle;whiteSpace=wrap;rounded=0;container=0;" vertex="1" parent="1">
          <mxGeometry x="397.60835913312695" y="831.8154545454545" width="24.922600619195048" height="14.90909090909091" as="geometry" />
        </mxCell>
        <mxCell id="eahyqfVtHaJqRNcFQ3CQ-21" value="" style="endArrow=classic;html=1;rounded=0;strokeWidth=1;startSize=6;opacity=70;jumpSize=1;strokeColor=default;shadow=1;" edge="1" parent="1">
          <mxGeometry width="50" height="50" relative="1" as="geometry">
            <mxPoint x="422.530959752322" y="778.8881818181817" as="sourcePoint" />
            <mxPoint x="447.453560371517" y="779.6336363636364" as="targetPoint" />
          </mxGeometry>
        </mxCell>
        <mxCell id="eahyqfVtHaJqRNcFQ3CQ-22" value="" style="endArrow=classic;html=1;rounded=0;strokeWidth=1;startSize=6;opacity=70;jumpSize=1;strokeColor=default;shadow=1;entryX=0.5;entryY=1;entryDx=0;entryDy=0;exitX=0.75;exitY=0;exitDx=0;exitDy=0;" edge="1" parent="1" source="eahyqfVtHaJqRNcFQ3CQ-14" target="eahyqfVtHaJqRNcFQ3CQ-24">
          <mxGeometry width="50" height="50" relative="1" as="geometry">
            <mxPoint x="522.2213622291022" y="854.1790909090909" as="sourcePoint" />
            <mxPoint x="347.7631578947369" y="861.6336363636364" as="targetPoint" />
            <Array as="points">
              <mxPoint x="547.1439628482972" y="861.6336363636364" />
            </Array>
          </mxGeometry>
        </mxCell>
        <mxCell id="eahyqfVtHaJqRNcFQ3CQ-23" value="" style="endArrow=classic;html=1;rounded=0;strokeWidth=1;startSize=6;opacity=70;jumpSize=1;strokeColor=default;shadow=1;entryX=0;entryY=0.5;entryDx=0;entryDy=0;" edge="1" parent="1" target="eahyqfVtHaJqRNcFQ3CQ-24">
          <mxGeometry width="50" height="50" relative="1" as="geometry">
            <mxPoint x="509.76006191950466" y="785.5972727272726" as="sourcePoint" />
            <mxPoint x="534.6826625386997" y="785.5972727272726" as="targetPoint" />
          </mxGeometry>
        </mxCell>
        <mxCell id="eahyqfVtHaJqRNcFQ3CQ-24" value="" style="ellipse;whiteSpace=wrap;html=1;container=0;" vertex="1" parent="1">
          <mxGeometry x="539.6671826625387" y="764.7245454545455" width="19.93808049535604" height="44.72727272727273" as="geometry" />
        </mxCell>
        <mxCell id="eahyqfVtHaJqRNcFQ3CQ-25" value="=" style="text;html=1;align=center;verticalAlign=middle;whiteSpace=wrap;rounded=0;container=0;" vertex="1" parent="1">
          <mxGeometry x="542.1594427244582" y="779.6336363636364" width="17.445820433436534" height="14.90909090909091" as="geometry" />
        </mxCell>
        <mxCell id="eahyqfVtHaJqRNcFQ3CQ-29" value="" style="endArrow=classic;html=1;rounded=0;entryX=0.795;entryY=1.023;entryDx=0;entryDy=0;entryPerimeter=0;" edge="1" parent="1" target="eahyqfVtHaJqRNcFQ3CQ-2">
          <mxGeometry width="50" height="50" relative="1" as="geometry">
            <mxPoint x="200" y="601" as="sourcePoint" />
            <mxPoint x="600" y="650" as="targetPoint" />
          </mxGeometry>
        </mxCell>
        <mxCell id="eahyqfVtHaJqRNcFQ3CQ-30" value="tx_bit_count_reg_en" style="edgeLabel;html=1;align=center;verticalAlign=middle;resizable=0;points=[];" vertex="1" connectable="0" parent="eahyqfVtHaJqRNcFQ3CQ-29">
          <mxGeometry x="-0.3171" y="-1" relative="1" as="geometry">
            <mxPoint y="-12" as="offset" />
          </mxGeometry>
        </mxCell>
        <mxCell id="eahyqfVtHaJqRNcFQ3CQ-31" value="" style="endArrow=classic;html=1;rounded=0;entryX=0.866;entryY=1.023;entryDx=0;entryDy=0;entryPerimeter=0;" edge="1" parent="1" target="eahyqfVtHaJqRNcFQ3CQ-14">
          <mxGeometry width="50" height="50" relative="1" as="geometry">
            <mxPoint x="200" y="880" as="sourcePoint" />
            <mxPoint x="600" y="650" as="targetPoint" />
          </mxGeometry>
        </mxCell>
        <mxCell id="eahyqfVtHaJqRNcFQ3CQ-32" value="rx_bit_count_reg_en" style="edgeLabel;html=1;align=center;verticalAlign=middle;resizable=0;points=[];" vertex="1" connectable="0" parent="eahyqfVtHaJqRNcFQ3CQ-31">
          <mxGeometry x="-0.3577" y="2" relative="1" as="geometry">
            <mxPoint y="-9" as="offset" />
          </mxGeometry>
        </mxCell>
        <mxCell id="eahyqfVtHaJqRNcFQ3CQ-33" value="" style="endArrow=classic;html=1;rounded=0;exitX=1;exitY=0.5;exitDx=0;exitDy=0;" edge="1" parent="1" source="eahyqfVtHaJqRNcFQ3CQ-12">
          <mxGeometry width="50" height="50" relative="1" as="geometry">
            <mxPoint x="550" y="700" as="sourcePoint" />
            <mxPoint x="760" y="520" as="targetPoint" />
          </mxGeometry>
        </mxCell>
        <mxCell id="eahyqfVtHaJqRNcFQ3CQ-34" value="tx_bit_count" style="edgeLabel;html=1;align=center;verticalAlign=middle;resizable=0;points=[];" vertex="1" connectable="0" parent="eahyqfVtHaJqRNcFQ3CQ-33">
          <mxGeometry x="-0.0679" relative="1" as="geometry">
            <mxPoint y="-8" as="offset" />
          </mxGeometry>
        </mxCell>
        <mxCell id="eahyqfVtHaJqRNcFQ3CQ-35" value="" style="endArrow=classic;html=1;rounded=0;exitX=1;exitY=0.5;exitDx=0;exitDy=0;" edge="1" parent="1" source="eahyqfVtHaJqRNcFQ3CQ-25">
          <mxGeometry width="50" height="50" relative="1" as="geometry">
            <mxPoint x="550" y="700" as="sourcePoint" />
            <mxPoint x="760" y="787" as="targetPoint" />
          </mxGeometry>
        </mxCell>
        <mxCell id="eahyqfVtHaJqRNcFQ3CQ-36" value="rx_bit_count" style="edgeLabel;align=center;verticalAlign=middle;resizable=0;points=[];labelBackgroundColor=none;" vertex="1" connectable="0" parent="eahyqfVtHaJqRNcFQ3CQ-35">
          <mxGeometry x="-0.018" y="-2" relative="1" as="geometry">
            <mxPoint y="-9" as="offset" />
          </mxGeometry>
        </mxCell>
      </root>
    </mxGraphModel>
  </diagram>
  <diagram id="X_IwTW3h4G-B-V7JZ5bC" name="Page-5">
    <mxGraphModel dx="880" dy="532" grid="1" gridSize="10" guides="1" tooltips="1" connect="1" arrows="1" fold="1" page="1" pageScale="1" pageWidth="850" pageHeight="1100" math="0" shadow="0">
      <root>
        <mxCell id="0" />
        <mxCell id="1" parent="0" />
        <mxCell id="MCIPrLhc9IJWMNh23TX6-17" value="parity_calculate" style="rounded=0;whiteSpace=wrap;html=1;fillColor=none;labelPosition=center;verticalLabelPosition=bottom;align=center;verticalAlign=top;" vertex="1" parent="1">
          <mxGeometry x="360" y="130" width="270" height="460" as="geometry" />
        </mxCell>
        <mxCell id="MCIPrLhc9IJWMNh23TX6-1" value="" style="shape=xor;whiteSpace=wrap;html=1;container=0;" vertex="1" parent="1">
          <mxGeometry x="428.7616099071207" y="199.27272727272728" width="49.845201238390096" height="74.54545454545453" as="geometry" />
        </mxCell>
        <mxCell id="MCIPrLhc9IJWMNh23TX6-2" value="" style="endArrow=none;html=1;rounded=0;curved=1;" edge="1" parent="1">
          <mxGeometry width="50" height="50" relative="1" as="geometry">
            <mxPoint x="416.3003095975232" y="266.3636363636364" as="sourcePoint" />
            <mxPoint x="416.3003095975232" y="206.72727272727275" as="targetPoint" />
            <Array as="points">
              <mxPoint x="453.6842105263158" y="236.54545454545456" />
            </Array>
          </mxGeometry>
        </mxCell>
        <mxCell id="MCIPrLhc9IJWMNh23TX6-3" value="" style="endArrow=classic;html=1;rounded=0;strokeWidth=1;startSize=6;opacity=70;jumpSize=1;strokeColor=default;shadow=1;entryX=0.25;entryY=1;entryDx=0;entryDy=0;" edge="1" parent="1" target="MCIPrLhc9IJWMNh23TX6-6">
          <mxGeometry width="50" height="50" relative="1" as="geometry">
            <mxPoint x="478.60681114551085" y="235.8" as="sourcePoint" />
            <mxPoint x="549.6362229102167" y="214.1818181818182" as="targetPoint" />
            <Array as="points">
              <mxPoint x="491.06811145510835" y="236.54545454545456" />
              <mxPoint x="491.06811145510835" y="221.63636363636363" />
            </Array>
          </mxGeometry>
        </mxCell>
        <mxCell id="MCIPrLhc9IJWMNh23TX6-4" value="" style="endArrow=classic;html=1;rounded=0;strokeWidth=1;startSize=6;opacity=70;jumpSize=1;strokeColor=default;shadow=1;entryX=0;entryY=0.5;entryDx=0;entryDy=0;" edge="1" parent="1" target="MCIPrLhc9IJWMNh23TX6-5">
          <mxGeometry width="50" height="50" relative="1" as="geometry">
            <mxPoint x="491.06811145510835" y="229.0909090909091" as="sourcePoint" />
            <mxPoint x="528.4520123839009" y="288.72727272727275" as="targetPoint" />
            <Array as="points">
              <mxPoint x="491.06811145510835" y="281.27272727272725" />
            </Array>
          </mxGeometry>
        </mxCell>
        <mxCell id="MCIPrLhc9IJWMNh23TX6-5" value="" style="ellipse;whiteSpace=wrap;html=1;aspect=fixed;container=0;" vertex="1" parent="1">
          <mxGeometry x="540.9133126934985" y="273.8181818181818" width="10" height="10" as="geometry" />
        </mxCell>
        <mxCell id="MCIPrLhc9IJWMNh23TX6-6" value="" style="shape=trapezoid;perimeter=trapezoidPerimeter;whiteSpace=wrap;html=1;fixedSize=1;direction=south;container=0;" vertex="1" parent="1">
          <mxGeometry x="553.374613003096" y="184.36363636363637" width="24.922600619195048" height="149.09090909090907" as="geometry" />
        </mxCell>
        <mxCell id="MCIPrLhc9IJWMNh23TX6-7" value="1" style="text;html=1;align=center;verticalAlign=middle;whiteSpace=wrap;rounded=0;container=0;" vertex="1" parent="1">
          <mxGeometry x="553.374613003096" y="273.8203116883117" width="24.922600619195048" height="21.298701298701292" as="geometry" />
        </mxCell>
        <mxCell id="MCIPrLhc9IJWMNh23TX6-8" value="0" style="text;html=1;align=center;verticalAlign=middle;whiteSpace=wrap;rounded=0;container=0;" vertex="1" parent="1">
          <mxGeometry x="559.6052631578948" y="199.27272727272728" width="12.461300309597524" height="42.597402597402585" as="geometry" />
        </mxCell>
        <mxCell id="MCIPrLhc9IJWMNh23TX6-9" value="" style="shape=xor;whiteSpace=wrap;html=1;container=0;" vertex="1" parent="1">
          <mxGeometry x="428.7616099071207" y="414.91272727272724" width="49.845201238390096" height="74.54545454545453" as="geometry" />
        </mxCell>
        <mxCell id="MCIPrLhc9IJWMNh23TX6-10" value="" style="endArrow=none;html=1;rounded=0;curved=1;" edge="1" parent="1">
          <mxGeometry width="50" height="50" relative="1" as="geometry">
            <mxPoint x="416.3003095975232" y="482.00363636363636" as="sourcePoint" />
            <mxPoint x="416.3003095975232" y="422.36727272727273" as="targetPoint" />
            <Array as="points">
              <mxPoint x="453.6842105263158" y="452.18545454545455" />
            </Array>
          </mxGeometry>
        </mxCell>
        <mxCell id="MCIPrLhc9IJWMNh23TX6-11" value="" style="endArrow=classic;html=1;rounded=0;strokeWidth=1;startSize=6;opacity=70;jumpSize=1;strokeColor=default;shadow=1;entryX=0.25;entryY=1;entryDx=0;entryDy=0;" edge="1" parent="1" target="MCIPrLhc9IJWMNh23TX6-14">
          <mxGeometry width="50" height="50" relative="1" as="geometry">
            <mxPoint x="478.60681114551085" y="451.44" as="sourcePoint" />
            <mxPoint x="549.6362229102167" y="429.8218181818182" as="targetPoint" />
            <Array as="points">
              <mxPoint x="491.06811145510835" y="452.18545454545455" />
              <mxPoint x="491.06811145510835" y="437.2763636363636" />
            </Array>
          </mxGeometry>
        </mxCell>
        <mxCell id="MCIPrLhc9IJWMNh23TX6-12" value="" style="endArrow=classic;html=1;rounded=0;strokeWidth=1;startSize=6;opacity=70;jumpSize=1;strokeColor=default;shadow=1;entryX=0;entryY=0.5;entryDx=0;entryDy=0;" edge="1" parent="1" target="MCIPrLhc9IJWMNh23TX6-13">
          <mxGeometry width="50" height="50" relative="1" as="geometry">
            <mxPoint x="491.06811145510835" y="444.7309090909091" as="sourcePoint" />
            <mxPoint x="528.4520123839009" y="504.36727272727273" as="targetPoint" />
            <Array as="points">
              <mxPoint x="491.06811145510835" y="496.91272727272724" />
            </Array>
          </mxGeometry>
        </mxCell>
        <mxCell id="MCIPrLhc9IJWMNh23TX6-13" value="" style="ellipse;whiteSpace=wrap;html=1;aspect=fixed;container=0;" vertex="1" parent="1">
          <mxGeometry x="540.9133126934985" y="489.4581818181818" width="10" height="10" as="geometry" />
        </mxCell>
        <mxCell id="MCIPrLhc9IJWMNh23TX6-14" value="" style="shape=trapezoid;perimeter=trapezoidPerimeter;whiteSpace=wrap;html=1;fixedSize=1;direction=south;container=0;" vertex="1" parent="1">
          <mxGeometry x="553.374613003096" y="400.00363636363636" width="24.922600619195048" height="149.09090909090907" as="geometry" />
        </mxCell>
        <mxCell id="MCIPrLhc9IJWMNh23TX6-15" value="1" style="text;html=1;align=center;verticalAlign=middle;whiteSpace=wrap;rounded=0;container=0;" vertex="1" parent="1">
          <mxGeometry x="553.374613003096" y="489.46031168831166" width="24.922600619195048" height="21.298701298701292" as="geometry" />
        </mxCell>
        <mxCell id="MCIPrLhc9IJWMNh23TX6-16" value="0" style="text;html=1;align=center;verticalAlign=middle;whiteSpace=wrap;rounded=0;container=0;" vertex="1" parent="1">
          <mxGeometry x="559.6052631578948" y="414.91272727272724" width="12.461300309597524" height="42.597402597402585" as="geometry" />
        </mxCell>
        <mxCell id="MCIPrLhc9IJWMNh23TX6-18" value="" style="endArrow=classic;html=1;rounded=0;" edge="1" parent="1">
          <mxGeometry width="50" height="50" relative="1" as="geometry">
            <mxPoint x="200" y="240" as="sourcePoint" />
            <mxPoint x="430" y="240" as="targetPoint" />
          </mxGeometry>
        </mxCell>
        <mxCell id="MCIPrLhc9IJWMNh23TX6-24" value="tx_data" style="edgeLabel;html=1;align=center;verticalAlign=middle;resizable=0;points=[];" vertex="1" connectable="0" parent="MCIPrLhc9IJWMNh23TX6-18">
          <mxGeometry x="-0.3217" y="1" relative="1" as="geometry">
            <mxPoint y="-9" as="offset" />
          </mxGeometry>
        </mxCell>
        <mxCell id="MCIPrLhc9IJWMNh23TX6-19" value="" style="endArrow=classic;html=1;rounded=0;" edge="1" parent="1">
          <mxGeometry width="50" height="50" relative="1" as="geometry">
            <mxPoint x="200" y="450" as="sourcePoint" />
            <mxPoint x="430" y="450" as="targetPoint" />
          </mxGeometry>
        </mxCell>
        <mxCell id="MCIPrLhc9IJWMNh23TX6-27" value="rx_data" style="edgeLabel;html=1;align=center;verticalAlign=middle;resizable=0;points=[];" vertex="1" connectable="0" parent="MCIPrLhc9IJWMNh23TX6-19">
          <mxGeometry x="-0.3217" relative="1" as="geometry">
            <mxPoint y="-14" as="offset" />
          </mxGeometry>
        </mxCell>
        <mxCell id="MCIPrLhc9IJWMNh23TX6-20" value="" style="endArrow=classic;html=1;rounded=0;entryX=1;entryY=0.5;entryDx=0;entryDy=0;" edge="1" parent="1" target="MCIPrLhc9IJWMNh23TX6-6">
          <mxGeometry width="50" height="50" relative="1" as="geometry">
            <mxPoint x="200" y="360" as="sourcePoint" />
            <mxPoint x="450" y="390" as="targetPoint" />
            <Array as="points">
              <mxPoint x="566" y="360" />
            </Array>
          </mxGeometry>
        </mxCell>
        <mxCell id="MCIPrLhc9IJWMNh23TX6-30" value="parity" style="edgeLabel;html=1;align=center;verticalAlign=middle;resizable=0;points=[];" vertex="1" connectable="0" parent="MCIPrLhc9IJWMNh23TX6-20">
          <mxGeometry x="-0.5628" y="-1" relative="1" as="geometry">
            <mxPoint y="-11" as="offset" />
          </mxGeometry>
        </mxCell>
        <mxCell id="MCIPrLhc9IJWMNh23TX6-21" value="" style="endArrow=classic;html=1;rounded=0;entryX=0;entryY=0.5;entryDx=0;entryDy=0;startArrow=oval;startFill=1;" edge="1" parent="1" target="MCIPrLhc9IJWMNh23TX6-14">
          <mxGeometry width="50" height="50" relative="1" as="geometry">
            <mxPoint x="566" y="360" as="sourcePoint" />
            <mxPoint x="450" y="390" as="targetPoint" />
          </mxGeometry>
        </mxCell>
        <mxCell id="MCIPrLhc9IJWMNh23TX6-22" value="" style="endArrow=classic;html=1;rounded=0;exitX=0.454;exitY=-0.028;exitDx=0;exitDy=0;exitPerimeter=0;" edge="1" parent="1" source="MCIPrLhc9IJWMNh23TX6-6">
          <mxGeometry width="50" height="50" relative="1" as="geometry">
            <mxPoint x="400" y="440" as="sourcePoint" />
            <mxPoint x="720" y="252" as="targetPoint" />
          </mxGeometry>
        </mxCell>
        <mxCell id="MCIPrLhc9IJWMNh23TX6-31" value="tx_parity_add" style="edgeLabel;html=1;align=center;verticalAlign=middle;resizable=0;points=[];" vertex="1" connectable="0" parent="MCIPrLhc9IJWMNh23TX6-22">
          <mxGeometry x="0.4043" relative="1" as="geometry">
            <mxPoint x="-8" y="-10" as="offset" />
          </mxGeometry>
        </mxCell>
        <mxCell id="MCIPrLhc9IJWMNh23TX6-23" value="" style="endArrow=classic;html=1;rounded=0;exitX=0.463;exitY=0.012;exitDx=0;exitDy=0;exitPerimeter=0;" edge="1" parent="1" source="MCIPrLhc9IJWMNh23TX6-14">
          <mxGeometry width="50" height="50" relative="1" as="geometry">
            <mxPoint x="400" y="440" as="sourcePoint" />
            <mxPoint x="720" y="469" as="targetPoint" />
          </mxGeometry>
        </mxCell>
        <mxCell id="MCIPrLhc9IJWMNh23TX6-32" value="rx_parity_add" style="edgeLabel;html=1;align=center;verticalAlign=middle;resizable=0;points=[];" vertex="1" connectable="0" parent="MCIPrLhc9IJWMNh23TX6-23">
          <mxGeometry x="0.169" y="-1" relative="1" as="geometry">
            <mxPoint x="9" y="-12" as="offset" />
          </mxGeometry>
        </mxCell>
        <mxCell id="MCIPrLhc9IJWMNh23TX6-25" value="" style="endArrow=none;html=1;rounded=0;" edge="1" parent="1">
          <mxGeometry width="50" height="50" relative="1" as="geometry">
            <mxPoint x="330" y="250" as="sourcePoint" />
            <mxPoint x="350" y="230" as="targetPoint" />
          </mxGeometry>
        </mxCell>
        <mxCell id="MCIPrLhc9IJWMNh23TX6-26" value="8" style="edgeLabel;html=1;align=center;verticalAlign=middle;resizable=0;points=[];" vertex="1" connectable="0" parent="MCIPrLhc9IJWMNh23TX6-25">
          <mxGeometry x="0.5" y="1" relative="1" as="geometry">
            <mxPoint x="-4" y="-14" as="offset" />
          </mxGeometry>
        </mxCell>
        <mxCell id="MCIPrLhc9IJWMNh23TX6-28" value="" style="endArrow=none;html=1;rounded=0;" edge="1" parent="1">
          <mxGeometry width="50" height="50" relative="1" as="geometry">
            <mxPoint x="320" y="460" as="sourcePoint" />
            <mxPoint x="340" y="440" as="targetPoint" />
          </mxGeometry>
        </mxCell>
        <mxCell id="MCIPrLhc9IJWMNh23TX6-29" value="8" style="edgeLabel;html=1;align=center;verticalAlign=middle;resizable=0;points=[];" vertex="1" connectable="0" parent="MCIPrLhc9IJWMNh23TX6-28">
          <mxGeometry x="0.85" y="1" relative="1" as="geometry">
            <mxPoint x="-8" y="-5" as="offset" />
          </mxGeometry>
        </mxCell>
      </root>
    </mxGraphModel>
  </diagram>
</mxfile>
